<svg xmlns="http://www.w3.org/2000/svg" xmlns:xlink="http://www.w3.org/1999/xlink" width="1080" zoomAndPan="magnify" viewBox="0 0 810 809.999993" height="1080" preserveAspectRatio="xMidYMid meet" version="1.0"><defs><g/><clipPath id="0136e9400d"><path d="M 243 243.75 L 567 243.75 L 567 567.75 L 243 567.75 Z M 243 243.75 " clip-rule="nonzero"/></clipPath><clipPath id="f1fed8419a"><path d="M 378 490 L 388 490 L 388 525.75 L 378 525.75 Z M 378 490 " clip-rule="nonzero"/></clipPath><clipPath id="e7263d6ce0"><path d="M 379 504 L 386 504 L 386 525.75 L 379 525.75 Z M 379 504 " clip-rule="nonzero"/></clipPath><clipPath id="bfca18931b"><path d="M 389 489 L 400 489 L 400 525.75 L 389 525.75 Z M 389 489 " clip-rule="nonzero"/></clipPath><clipPath id="af5031ce91"><path d="M 389 508 L 400 508 L 400 525.75 L 389 525.75 Z M 389 508 " clip-rule="nonzero"/></clipPath><clipPath id="dbbf76b006"><path d="M 389 516 L 395 516 L 395 525.75 L 389 525.75 Z M 389 516 " clip-rule="nonzero"/></clipPath><clipPath id="d773970c06"><path d="M 386 481 L 395 481 L 395 525.75 L 386 525.75 Z M 386 481 " clip-rule="nonzero"/></clipPath><clipPath id="8e4a2dee27"><path d="M 386 506 L 395 506 L 395 525.75 L 386 525.75 Z M 386 506 " clip-rule="nonzero"/></clipPath><clipPath id="65326ecf25"><path d="M 386 511 L 390 511 L 390 525.75 L 386 525.75 Z M 386 511 " clip-rule="nonzero"/></clipPath><clipPath id="e32cd56a07"><path d="M 380 478.5 L 389 478.5 L 389 525.75 L 380 525.75 Z M 380 478.5 " clip-rule="nonzero"/></clipPath><clipPath id="7cde0dbcb1"><path d="M 382 479 L 390 479 L 390 525.75 L 382 525.75 Z M 382 479 " clip-rule="nonzero"/></clipPath><clipPath id="273d8861a7"><path d="M 381 478.5 L 387 478.5 L 387 491 L 381 491 Z M 381 478.5 " clip-rule="nonzero"/></clipPath><clipPath id="9bc90a3227"><path d="M 380 478.5 L 389 478.5 L 389 498 L 380 498 Z M 380 478.5 " clip-rule="nonzero"/></clipPath><clipPath id="998ebccb0f"><path d="M 385 515 L 389 515 L 389 525.75 L 385 525.75 Z M 385 515 " clip-rule="nonzero"/></clipPath><clipPath id="b32d81decc"><path d="M 390 511 L 395 511 L 395 525.75 L 390 525.75 Z M 390 511 " clip-rule="nonzero"/></clipPath><clipPath id="e4648ef1f2"><path d="M 390 513 L 395 513 L 395 525.75 L 390 525.75 Z M 390 513 " clip-rule="nonzero"/></clipPath><clipPath id="4e36972637"><path d="M 374.710938 493 L 384 493 L 384 514 L 374.710938 514 Z M 374.710938 493 " clip-rule="nonzero"/></clipPath><clipPath id="03aad0526e"><path d="M 380 515 L 387 515 L 387 525.75 L 380 525.75 Z M 380 515 " clip-rule="nonzero"/></clipPath><clipPath id="1b48704a50"><path d="M 380 515 L 386 515 L 386 525.75 L 380 525.75 Z M 380 515 " clip-rule="nonzero"/></clipPath><clipPath id="b2ff91a206"><path d="M 381 516 L 386 516 L 386 525.75 L 381 525.75 Z M 381 516 " clip-rule="nonzero"/></clipPath><clipPath id="baedd1c9e0"><path d="M 396 514 L 399 514 L 399 525.75 L 396 525.75 Z M 396 514 " clip-rule="nonzero"/></clipPath><clipPath id="20a5f1aa05"><path d="M 394.710938 500.8125 L 401.699219 500.8125 L 401.699219 512.554688 L 394.710938 512.554688 Z M 394.710938 500.8125 " clip-rule="nonzero"/></clipPath><clipPath id="a5efaa4d44"><path d="M 396 515 L 399 515 L 399 525.75 L 396 525.75 Z M 396 515 " clip-rule="nonzero"/></clipPath><clipPath id="91af535a0a"><path d="M 397 500 L 401.710938 500 L 401.710938 508 L 397 508 Z M 397 500 " clip-rule="nonzero"/></clipPath></defs><g clip-path="url(#0136e9400d)"><path fill="#215d92" d="M 477.261719 567.742188 L 332.738281 567.742188 C 320.625 567.742188 308.871094 565.371094 297.808594 560.691406 C 287.121094 556.171875 277.523438 549.699219 269.285156 541.460938 C 261.046875 533.222656 254.574219 523.625 250.054688 512.9375 C 245.375 501.875 243.003906 490.121094 243.003906 478.007812 L 243.003906 333.484375 C 243.003906 321.371094 245.375 309.617188 250.054688 298.550781 C 254.574219 287.867188 261.046875 278.269531 269.285156 270.03125 C 277.523438 261.789062 287.121094 255.320312 297.808594 250.800781 C 308.871094 246.121094 320.625 243.75 332.738281 243.75 L 477.261719 243.75 C 489.375 243.75 501.128906 246.121094 512.191406 250.800781 C 522.878906 255.320312 532.476562 261.789062 540.714844 270.03125 C 548.953125 278.269531 555.425781 287.867188 559.945312 298.550781 C 564.625 309.617188 566.996094 321.371094 566.996094 333.484375 L 566.996094 478.007812 C 566.996094 490.121094 564.625 501.871094 559.945312 512.9375 C 555.425781 523.625 548.953125 533.21875 540.714844 541.460938 C 532.476562 549.699219 522.878906 556.171875 512.191406 560.691406 C 501.128906 565.371094 489.375 567.742188 477.261719 567.742188 Z M 332.738281 251.164062 C 287.347656 251.164062 250.417969 288.09375 250.417969 333.484375 L 250.417969 478.007812 C 250.417969 523.398438 287.347656 560.328125 332.738281 560.328125 L 477.261719 560.328125 C 522.652344 560.328125 559.582031 523.398438 559.582031 478.007812 L 559.582031 333.484375 C 559.582031 288.089844 522.652344 251.164062 477.261719 251.164062 Z M 332.738281 251.164062 " fill-opacity="1" fill-rule="nonzero"/></g><g fill="#215d92" fill-opacity="1"><g transform="translate(403.45014, 520.101583)"><g><path d="M 1.140625 0 C 1.066406 -0.300781 0.988281 -0.5625 0.90625 -0.78125 C 0.832031 -1 0.796875 -1.253906 0.796875 -1.546875 C 0.796875 -2.566406 1.046875 -3.519531 1.546875 -4.40625 C 2.054688 -5.300781 2.738281 -6.128906 3.59375 -6.890625 C 4.457031 -7.648438 5.421875 -8.367188 6.484375 -9.046875 C 7.546875 -9.734375 8.648438 -10.390625 9.796875 -11.015625 C 10.941406 -11.648438 12.046875 -12.269531 13.109375 -12.875 C 14.171875 -13.476562 15.128906 -14.082031 15.984375 -14.6875 C 16.847656 -15.300781 17.53125 -15.929688 18.03125 -16.578125 C 18.539062 -17.222656 18.796875 -17.898438 18.796875 -18.609375 C 18.796875 -19.515625 18.5 -20.328125 17.90625 -21.046875 C 17.3125 -21.765625 16.492188 -22.332031 15.453125 -22.75 C 14.421875 -23.164062 13.238281 -23.375 11.90625 -23.375 C 9.800781 -23.375 8.007812 -23 6.53125 -22.25 C 5.050781 -21.507812 3.867188 -20.519531 2.984375 -19.28125 L 0.796875 -22.09375 C 1.003906 -22.625 1.394531 -23.171875 1.96875 -23.734375 C 2.550781 -24.296875 3.257812 -24.8125 4.09375 -25.28125 C 4.925781 -25.75 5.832031 -26.128906 6.8125 -26.421875 C 7.800781 -26.710938 8.800781 -26.859375 9.8125 -26.859375 C 11.75 -26.859375 13.421875 -26.507812 14.828125 -25.8125 C 16.234375 -25.113281 17.320312 -24.140625 18.09375 -22.890625 C 18.863281 -21.648438 19.25 -20.222656 19.25 -18.609375 C 19.25 -17.117188 18.972656 -15.78125 18.421875 -14.59375 C 17.878906 -13.40625 17.15625 -12.328125 16.25 -11.359375 C 15.34375 -10.398438 14.34375 -9.53125 13.25 -8.75 C 12.164062 -7.96875 11.082031 -7.242188 10 -6.578125 C 8.914062 -5.910156 7.921875 -5.28125 7.015625 -4.6875 C 6.117188 -4.09375 5.394531 -3.492188 4.84375 -2.890625 C 4.289062 -2.296875 4.015625 -1.671875 4.015625 -1.015625 C 4.015625 -0.796875 4.046875 -0.640625 4.109375 -0.546875 C 4.171875 -0.453125 4.304688 -0.40625 4.515625 -0.40625 C 6.453125 -0.40625 8.316406 -0.597656 10.109375 -0.984375 C 11.910156 -1.367188 13.566406 -1.847656 15.078125 -2.421875 C 16.597656 -3.003906 17.898438 -3.5625 18.984375 -4.09375 L 18.984375 0 Z M 1.140625 0 "/></g></g></g><g fill="#215d92" fill-opacity="1"><g transform="translate(424.027839, 520.101583)"><g><path d="M 11.25 0.265625 C 9.3125 0.265625 7.613281 -0.300781 6.15625 -1.4375 C 4.707031 -2.570312 3.582031 -4.15625 2.78125 -6.1875 C 1.988281 -8.21875 1.59375 -10.585938 1.59375 -13.296875 C 1.59375 -16.003906 1.988281 -18.375 2.78125 -20.40625 C 3.582031 -22.4375 4.707031 -24.019531 6.15625 -25.15625 C 7.613281 -26.289062 9.3125 -26.859375 11.25 -26.859375 C 13.175781 -26.859375 14.859375 -26.289062 16.296875 -25.15625 C 17.734375 -24.019531 18.851562 -22.4375 19.65625 -20.40625 C 20.46875 -18.375 20.875 -16.003906 20.875 -13.296875 C 20.875 -10.585938 20.46875 -8.21875 19.65625 -6.1875 C 18.851562 -4.15625 17.734375 -2.570312 16.296875 -1.4375 C 14.859375 -0.300781 13.175781 0.265625 11.25 0.265625 Z M 5.53125 -13.328125 C 5.53125 -10.679688 5.757812 -8.367188 6.21875 -6.390625 C 6.6875 -4.421875 7.347656 -2.882812 8.203125 -1.78125 C 9.066406 -0.6875 10.070312 -0.140625 11.21875 -0.140625 C 12.394531 -0.140625 13.410156 -0.6875 14.265625 -1.78125 C 15.128906 -2.882812 15.789062 -4.421875 16.25 -6.390625 C 16.707031 -8.367188 16.9375 -10.679688 16.9375 -13.328125 C 16.9375 -15.960938 16.707031 -18.265625 16.25 -20.234375 C 15.789062 -22.203125 15.128906 -23.734375 14.265625 -24.828125 C 13.410156 -25.929688 12.394531 -26.484375 11.21875 -26.484375 C 10.070312 -26.484375 9.066406 -25.929688 8.203125 -24.828125 C 7.347656 -23.734375 6.6875 -22.203125 6.21875 -20.234375 C 5.757812 -18.265625 5.53125 -15.960938 5.53125 -13.328125 Z M 5.53125 -13.328125 "/></g></g></g><g fill="#215d92" fill-opacity="1"><g transform="translate(446.493152, 520.101583)"><g><path d="M 11.25 0.265625 C 9.3125 0.265625 7.613281 -0.300781 6.15625 -1.4375 C 4.707031 -2.570312 3.582031 -4.15625 2.78125 -6.1875 C 1.988281 -8.21875 1.59375 -10.585938 1.59375 -13.296875 C 1.59375 -16.003906 1.988281 -18.375 2.78125 -20.40625 C 3.582031 -22.4375 4.707031 -24.019531 6.15625 -25.15625 C 7.613281 -26.289062 9.3125 -26.859375 11.25 -26.859375 C 13.175781 -26.859375 14.859375 -26.289062 16.296875 -25.15625 C 17.734375 -24.019531 18.851562 -22.4375 19.65625 -20.40625 C 20.46875 -18.375 20.875 -16.003906 20.875 -13.296875 C 20.875 -10.585938 20.46875 -8.21875 19.65625 -6.1875 C 18.851562 -4.15625 17.734375 -2.570312 16.296875 -1.4375 C 14.859375 -0.300781 13.175781 0.265625 11.25 0.265625 Z M 5.53125 -13.328125 C 5.53125 -10.679688 5.757812 -8.367188 6.21875 -6.390625 C 6.6875 -4.421875 7.347656 -2.882812 8.203125 -1.78125 C 9.066406 -0.6875 10.070312 -0.140625 11.21875 -0.140625 C 12.394531 -0.140625 13.410156 -0.6875 14.265625 -1.78125 C 15.128906 -2.882812 15.789062 -4.421875 16.25 -6.390625 C 16.707031 -8.367188 16.9375 -10.679688 16.9375 -13.328125 C 16.9375 -15.960938 16.707031 -18.265625 16.25 -20.234375 C 15.789062 -22.203125 15.128906 -23.734375 14.265625 -24.828125 C 13.410156 -25.929688 12.394531 -26.484375 11.21875 -26.484375 C 10.070312 -26.484375 9.066406 -25.929688 8.203125 -24.828125 C 7.347656 -23.734375 6.6875 -22.203125 6.21875 -20.234375 C 5.757812 -18.265625 5.53125 -15.960938 5.53125 -13.328125 Z M 5.53125 -13.328125 "/></g></g></g><path fill="#ffb4c7" d="M 441.113281 418.292969 C 440.914062 421.769531 454.292969 446.046875 453.199219 458.5625 C 452.9375 461.507812 451.878906 463.796875 449.675781 465.019531 C 438.007812 471.460938 408.523438 441.65625 403.289062 442.152344 C 398.992188 442.535156 378.730469 464.207031 365.285156 466.128906 C 362.3125 466.542969 359.683594 466.011719 357.621094 464.074219 C 356.542969 463.0625 355.722656 461.871094 355.160156 460.5 C 350.03125 448.195312 366.800781 425.160156 365.945312 418.058594 C 365.695312 415.992188 363.121094 413.5625 359.503906 410.726562 C 359.503906 410.726562 359.503906 410.726562 359.46875 410.710938 C 349.277344 402.777344 331.042969 391.914062 334.546875 378.71875 C 338.359375 365.605469 363.335938 378.398438 378.546875 374.992188 C 390.457031 372.292969 387.75 340.628906 405.1875 339.667969 C 422.628906 338.703125 421.6875 371.472656 429.609375 374.976562 C 434.894531 377.3125 448.800781 373.832031 459.539062 374.976562 C 464.886719 375.523438 469.472656 377.226562 471.777344 381.351562 C 478.769531 393.71875 441.34375 413.988281 441.113281 418.292969 Z M 441.113281 418.292969 " fill-opacity="1" fill-rule="nonzero"/><path fill="#5b0000" d="M 405.574219 407.871094 C 411.914062 408.070312 413.628906 403.328125 413.023438 401.917969 C 412.417969 400.503906 409.964844 405.128906 405.574219 404.890625 C 400.09375 404.59375 398.734375 400.109375 397.828125 401.679688 C 396.921875 403.246094 399.230469 407.667969 405.574219 407.871094 Z M 405.574219 407.871094 " fill-opacity="1" fill-rule="nonzero"/><path fill="#5b0000" d="M 394.820312 393.929688 C 394.820312 394.4375 394.769531 394.941406 394.671875 395.441406 C 394.574219 395.941406 394.425781 396.425781 394.230469 396.894531 C 394.035156 397.367188 393.796875 397.8125 393.515625 398.234375 C 393.234375 398.660156 392.914062 399.050781 392.554688 399.410156 C 392.195312 399.769531 391.804688 400.089844 391.382812 400.375 C 390.960938 400.65625 390.515625 400.894531 390.046875 401.089844 C 389.574219 401.285156 389.09375 401.429688 388.59375 401.53125 C 388.097656 401.628906 387.59375 401.679688 387.085938 401.679688 C 386.578125 401.679688 386.074219 401.628906 385.578125 401.527344 C 385.078125 401.429688 384.597656 401.28125 384.128906 401.085938 C 383.660156 400.894531 383.210938 400.652344 382.789062 400.371094 C 382.367188 400.089844 381.976562 399.765625 381.617188 399.40625 C 381.261719 399.046875 380.941406 398.65625 380.65625 398.230469 C 380.375 397.808594 380.136719 397.363281 379.945312 396.890625 C 379.75 396.421875 379.601562 395.9375 379.503906 395.4375 C 379.40625 394.9375 379.355469 394.433594 379.355469 393.925781 C 379.355469 393.417969 379.40625 392.910156 379.503906 392.414062 C 379.601562 391.914062 379.75 391.429688 379.945312 390.957031 C 380.136719 390.488281 380.375 390.042969 380.660156 389.617188 C 380.941406 389.195312 381.261719 388.804688 381.621094 388.445312 C 381.980469 388.085938 382.371094 387.761719 382.792969 387.480469 C 383.214844 387.199219 383.660156 386.957031 384.128906 386.765625 C 384.597656 386.570312 385.082031 386.421875 385.578125 386.324219 C 386.078125 386.222656 386.582031 386.175781 387.089844 386.175781 C 387.597656 386.175781 388.097656 386.222656 388.597656 386.324219 C 389.09375 386.421875 389.578125 386.570312 390.046875 386.765625 C 390.515625 386.960938 390.964844 387.199219 391.386719 387.480469 C 391.808594 387.765625 392.199219 388.085938 392.558594 388.445312 C 392.917969 388.804688 393.238281 389.199219 393.519531 389.621094 C 393.800781 390.042969 394.039062 390.492188 394.234375 390.960938 C 394.425781 391.433594 394.574219 391.917969 394.671875 392.417969 C 394.773438 392.914062 394.820312 393.421875 394.820312 393.929688 Z M 394.820312 393.929688 " fill-opacity="1" fill-rule="nonzero"/><path fill="#ffffff" d="M 393.292969 392.507812 C 393.292969 392.816406 393.234375 393.113281 393.117188 393.398438 C 393 393.679688 392.832031 393.933594 392.613281 394.148438 C 392.398438 394.367188 392.148438 394.535156 391.863281 394.652344 C 391.582031 394.769531 391.285156 394.828125 390.980469 394.828125 C 390.671875 394.828125 390.375 394.769531 390.09375 394.652344 C 389.808594 394.535156 389.558594 394.367188 389.34375 394.148438 C 389.125 393.933594 388.957031 393.679688 388.839844 393.398438 C 388.722656 393.113281 388.664062 392.816406 388.664062 392.507812 C 388.664062 392.203125 388.722656 391.90625 388.839844 391.621094 C 388.957031 391.335938 389.125 391.085938 389.34375 390.871094 C 389.558594 390.652344 389.808594 390.484375 390.09375 390.367188 C 390.375 390.25 390.671875 390.191406 390.980469 390.191406 C 391.285156 390.191406 391.582031 390.25 391.863281 390.367188 C 392.148438 390.484375 392.398438 390.652344 392.613281 390.871094 C 392.832031 391.085938 393 391.335938 393.117188 391.621094 C 393.234375 391.90625 393.292969 392.203125 393.292969 392.507812 Z M 393.292969 392.507812 " fill-opacity="1" fill-rule="nonzero"/><path fill="#5b0000" d="M 431.316406 395.652344 C 431.316406 396.160156 431.265625 396.664062 431.167969 397.164062 C 431.070312 397.664062 430.921875 398.148438 430.726562 398.621094 C 430.53125 399.089844 430.292969 399.535156 430.011719 399.960938 C 429.730469 400.382812 429.410156 400.773438 429.050781 401.136719 C 428.691406 401.496094 428.300781 401.816406 427.878906 402.101562 C 427.457031 402.382812 427.011719 402.621094 426.539062 402.816406 C 426.070312 403.011719 425.585938 403.160156 425.089844 403.257812 C 424.589844 403.355469 424.089844 403.40625 423.578125 403.40625 C 423.070312 403.40625 422.570312 403.355469 422.070312 403.257812 C 421.574219 403.160156 421.089844 403.011719 420.621094 402.816406 C 420.148438 402.621094 419.703125 402.382812 419.28125 402.101562 C 418.859375 401.816406 418.46875 401.496094 418.109375 401.136719 C 417.75 400.773438 417.429688 400.382812 417.148438 399.960938 C 416.867188 399.535156 416.628906 399.089844 416.433594 398.621094 C 416.238281 398.148438 416.089844 397.664062 415.992188 397.164062 C 415.894531 396.664062 415.84375 396.160156 415.84375 395.652344 C 415.84375 395.140625 415.894531 394.636719 415.992188 394.136719 C 416.089844 393.640625 416.238281 393.152344 416.433594 392.683594 C 416.628906 392.214844 416.867188 391.765625 417.148438 391.34375 C 417.429688 390.917969 417.75 390.527344 418.109375 390.167969 C 418.46875 389.808594 418.859375 389.484375 419.28125 389.203125 C 419.703125 388.921875 420.148438 388.679688 420.621094 388.484375 C 421.089844 388.292969 421.574219 388.144531 422.070312 388.042969 C 422.570312 387.945312 423.070312 387.894531 423.578125 387.894531 C 424.089844 387.894531 424.589844 387.945312 425.089844 388.042969 C 425.585938 388.144531 426.070312 388.289062 426.539062 388.484375 C 427.011719 388.679688 427.457031 388.917969 427.878906 389.203125 C 428.300781 389.484375 428.691406 389.804688 429.050781 390.167969 C 429.410156 390.527344 429.730469 390.917969 430.011719 391.34375 C 430.296875 391.765625 430.535156 392.210938 430.726562 392.683594 C 430.921875 393.152344 431.070312 393.636719 431.167969 394.136719 C 431.265625 394.636719 431.316406 395.140625 431.316406 395.652344 Z M 431.316406 395.652344 " fill-opacity="1" fill-rule="nonzero"/><path fill="#ffffff" d="M 429.785156 394.230469 C 429.785156 394.539062 429.726562 394.835938 429.609375 395.117188 C 429.492188 395.402344 429.324219 395.652344 429.105469 395.871094 C 428.890625 396.089844 428.640625 396.257812 428.355469 396.375 C 428.074219 396.492188 427.777344 396.550781 427.46875 396.550781 C 427.164062 396.550781 426.867188 396.492188 426.585938 396.375 C 426.300781 396.257812 426.050781 396.089844 425.835938 395.871094 C 425.617188 395.652344 425.449219 395.402344 425.332031 395.117188 C 425.214844 394.835938 425.15625 394.539062 425.15625 394.230469 C 425.15625 393.921875 425.214844 393.628906 425.332031 393.34375 C 425.449219 393.058594 425.617188 392.808594 425.835938 392.589844 C 426.050781 392.375 426.300781 392.207031 426.585938 392.089844 C 426.867188 391.96875 427.164062 391.910156 427.46875 391.910156 C 427.777344 391.910156 428.074219 391.96875 428.355469 392.089844 C 428.640625 392.207031 428.890625 392.375 429.105469 392.589844 C 429.324219 392.808594 429.492188 393.058594 429.609375 393.34375 C 429.726562 393.628906 429.785156 393.921875 429.785156 394.230469 Z M 429.785156 394.230469 " fill-opacity="1" fill-rule="nonzero"/><path fill="#ff7a9c" d="M 433.4375 409.789062 C 433.4375 411.894531 430.695312 413.601562 427.3125 413.601562 C 423.933594 413.601562 421.1875 411.894531 421.1875 409.789062 C 421.1875 407.679688 423.929688 405.972656 427.3125 405.972656 C 430.699219 405.972656 433.4375 407.679688 433.4375 409.789062 Z M 433.4375 409.789062 " fill-opacity="1" fill-rule="nonzero"/><path fill="#ff7a9c" d="M 389.496094 409.789062 C 389.496094 411.894531 386.753906 413.601562 383.371094 413.601562 C 379.988281 413.601562 377.246094 411.894531 377.246094 409.789062 C 377.246094 407.679688 379.988281 405.972656 383.371094 405.972656 C 386.75 405.972656 389.496094 407.679688 389.496094 409.789062 Z M 389.496094 409.789062 " fill-opacity="1" fill-rule="nonzero"/><path fill="#ff7a9c" d="M 441.113281 418.292969 C 440.914062 421.769531 454.292969 446.046875 453.199219 458.5625 C 452.9375 461.507812 451.878906 463.796875 449.675781 465.019531 C 438.007812 471.460938 408.523438 441.65625 403.289062 442.152344 C 398.992188 442.535156 378.730469 464.207031 365.285156 466.128906 C 362.3125 466.542969 359.683594 466.011719 357.621094 464.074219 C 356.542969 463.0625 355.722656 461.871094 355.160156 460.5 C 357.488281 462.101562 360.03125 463.199219 362.789062 463.792969 C 372.46875 466.011719 397.757812 439.785156 403.371094 439.304688 C 408.984375 438.828125 439.378906 468.164062 448.660156 461.246094 C 457.941406 454.324219 436.917969 427.695312 437.792969 418.792969 C 438.863281 407.90625 470.800781 394.605469 469.582031 383.980469 C 468.773438 376.835938 463.425781 377.015625 459.546875 374.960938 C 464.894531 375.507812 469.480469 377.210938 471.785156 381.335938 C 478.769531 393.71875 441.34375 413.988281 441.113281 418.292969 Z M 441.113281 418.292969 " fill-opacity="1" fill-rule="nonzero"/><g clip-path="url(#f1fed8419a)"><path fill="#425d28" d="M 383.609375 518.660156 C 383.765625 519.316406 383.898438 519.980469 384.027344 520.636719 C 384.070312 520.863281 384.113281 521.09375 384.15625 521.320312 C 384.152344 521.535156 384.152344 521.75 384.144531 521.964844 C 384.136719 522.167969 384.125 522.371094 384.113281 522.574219 C 384.101562 522.632812 384.089844 522.695312 384.078125 522.753906 C 383.910156 523.605469 383.675781 524.433594 383.445312 525.269531 C 383.402344 525.425781 383.347656 525.589844 383.296875 525.75 L 384.550781 525.75 C 384.5625 525.707031 384.578125 525.664062 384.59375 525.621094 C 384.644531 525.597656 384.691406 525.5625 384.71875 525.515625 C 384.882812 525.246094 385.050781 525.054688 385.144531 524.742188 C 385.234375 524.449219 385.28125 524.15625 385.316406 523.855469 C 385.402344 523.203125 385.46875 522.550781 385.496094 521.894531 C 385.542969 520.679688 385.445312 519.484375 385.140625 518.292969 C 384.9375 517.5 384.617188 516.738281 384.171875 516.035156 C 383.9375 515.351562 383.617188 514.703125 383.199219 514.066406 C 382.574219 513.121094 381.820312 512.238281 381.28125 511.25 C 380.234375 509.328125 380.523438 507.003906 382.113281 505.492188 C 383.800781 503.890625 386.4375 503.234375 387.5625 501.105469 C 388.222656 499.863281 388.046875 498.539062 387.492188 497.257812 C 386.910156 495.898438 386.109375 494.617188 385.457031 493.285156 C 385.050781 492.324219 384.738281 491.335938 384.855469 490.308594 C 384.859375 490.269531 384.800781 490.246094 384.785156 490.285156 C 384.339844 491.429688 384.425781 492.613281 384.671875 493.808594 C 384.929688 495.085938 385.609375 496.269531 385.902344 497.542969 C 386.164062 498.679688 386.191406 499.917969 385.488281 500.898438 C 384.910156 501.703125 383.984375 502.238281 383.101562 502.722656 C 382.140625 503.25 381.171875 503.753906 380.351562 504.457031 C 379.390625 505.277344 378.761719 506.382812 378.398438 507.550781 C 378.015625 508.777344 377.921875 510.128906 378.25 511.398438 C 378.546875 512.5625 379.261719 513.546875 380.085938 514.453125 C 381 515.457031 382.039062 516.367188 382.851562 517.449219 C 383.148438 517.84375 383.402344 518.246094 383.609375 518.660156 " fill-opacity="1" fill-rule="nonzero"/></g><g clip-path="url(#e7263d6ce0)"><path fill="#364626" d="M 384.730469 522.566406 C 384.632812 523.023438 384.511719 523.472656 384.378906 523.917969 C 384.3125 524.140625 384.253906 524.363281 384.199219 524.589844 C 384.179688 524.667969 384.042969 525.152344 383.875 525.75 L 384.644531 525.75 C 384.773438 525.328125 384.875 525 384.902344 524.945312 C 384.980469 524.773438 385.046875 524.585938 385.109375 524.40625 C 385.25 524.007812 385.359375 523.597656 385.460938 523.1875 C 385.644531 522.445312 385.765625 521.691406 385.796875 520.925781 C 385.859375 519.4375 385.476562 517.957031 384.574219 516.691406 C 382.945312 514.394531 380.277344 512.582031 379.855469 509.710938 C 379.617188 508.097656 380.050781 506.304688 381.035156 504.996094 C 381.046875 504.980469 381.027344 504.960938 381.011719 504.972656 C 380.511719 505.457031 380.023438 506.023438 379.730469 506.644531 C 379.429688 507.292969 379.238281 507.980469 379.167969 508.683594 C 379.015625 510.117188 379.285156 511.585938 380.074219 512.863281 C 381.550781 515.257812 384.546875 517.054688 384.898438 519.953125 C 385.003906 520.835938 384.910156 521.707031 384.730469 522.566406 " fill-opacity="1" fill-rule="nonzero"/></g><path fill="#364626" d="M 387.460938 498.984375 C 387.417969 497.78125 386.824219 496.722656 386.226562 495.667969 C 385.578125 494.523438 385.140625 493.296875 384.929688 492.027344 C 384.921875 491.976562 384.828125 491.960938 384.824219 492.019531 C 384.703125 493.132812 384.855469 494.214844 385.246094 495.289062 C 385.578125 496.203125 386.082031 497.109375 386.332031 498.050781 C 386.367188 498.488281 386.308594 498.921875 386.210938 499.347656 C 386.011719 500.191406 385.554688 500.957031 384.878906 501.539062 C 384.222656 502.105469 383.40625 502.480469 382.652344 502.917969 C 381.902344 503.351562 381.234375 503.867188 380.734375 504.546875 C 380.664062 504.640625 380.585938 504.722656 380.667969 504.628906 C 381.308594 503.929688 382.460938 503.574219 383.324219 503.152344 C 384.167969 502.742188 385.019531 502.332031 385.695312 501.699219 C 385.722656 501.675781 385.746094 501.652344 385.769531 501.628906 C 385.753906 501.652344 385.742188 501.675781 385.726562 501.699219 C 385.425781 502.175781 385.042969 502.585938 384.636719 502.984375 C 384.445312 503.171875 384.25 503.351562 384.042969 503.527344 C 383.789062 503.738281 383.550781 503.980469 383.289062 504.179688 C 383.210938 504.238281 383.054688 504.34375 383.160156 504.296875 C 383.425781 504.179688 383.914062 504.140625 384.171875 503.996094 C 384.445312 503.847656 384.707031 503.671875 384.957031 503.492188 C 385.417969 503.160156 385.832031 502.765625 386.1875 502.332031 C 386.976562 501.382812 387.507812 500.21875 387.460938 498.984375 " fill-opacity="1" fill-rule="nonzero"/><g clip-path="url(#bfca18931b)"><path fill="#425d28" d="M 389.890625 525.75 L 391.28125 525.75 C 391.277344 525.734375 391.273438 525.71875 391.269531 525.703125 C 391.152344 525.066406 391.121094 524.4375 391.089844 523.875 C 391.050781 523.21875 391.09375 522.566406 391.15625 521.914062 C 391.171875 521.742188 391.195312 521.578125 391.214844 521.410156 C 391.21875 521.402344 391.21875 521.382812 391.222656 521.363281 C 391.238281 521.289062 391.25 521.214844 391.265625 521.136719 C 391.335938 520.789062 391.421875 520.449219 391.527344 520.109375 C 391.613281 519.820312 391.71875 519.535156 391.832031 519.253906 C 391.828125 519.261719 391.871094 519.164062 391.894531 519.109375 C 391.921875 519.050781 391.964844 518.957031 391.960938 518.964844 C 392.035156 518.8125 392.109375 518.664062 392.191406 518.515625 C 392.351562 518.222656 392.527344 517.9375 392.71875 517.664062 C 392.792969 517.554688 392.871094 517.445312 392.953125 517.339844 C 392.964844 517.324219 393.070312 517.199219 393.078125 517.183594 C 393.125 517.128906 393.167969 517.078125 393.214844 517.027344 C 394.300781 515.816406 395.601562 515.214844 396.917969 514.1875 C 398.265625 513.132812 399.433594 511.742188 399.640625 509.980469 C 399.839844 508.304688 398.878906 506.964844 398.007812 505.644531 C 397.171875 504.375 396.582031 502.960938 396.460938 501.425781 C 396.335938 499.8125 396.589844 498.21875 397.15625 496.714844 C 397.800781 495.015625 398.574219 493.347656 398.847656 491.542969 C 398.929688 490.984375 398.96875 490.40625 398.933594 489.839844 C 398.898438 490.089844 398.851562 490.335938 398.789062 490.582031 C 398.777344 490.625 398.765625 490.667969 398.757812 490.710938 C 398.738281 490.835938 398.703125 490.960938 398.65625 491.074219 C 398.601562 491.25 398.542969 491.425781 398.472656 491.59375 C 398.460938 491.628906 398.449219 491.667969 398.4375 491.699219 C 397.878906 493.308594 396.792969 494.628906 396.019531 496.121094 C 395.242188 497.617188 394.726562 499.191406 394.777344 500.894531 C 394.832031 502.554688 395.261719 504.203125 396.078125 505.648438 C 396.441406 506.289062 396.875 506.890625 397.226562 507.542969 C 397.386719 507.835938 397.511719 508.109375 397.589844 508.433594 C 397.613281 508.523438 397.632812 508.617188 397.648438 508.707031 C 397.65625 508.75 397.660156 508.777344 397.664062 508.800781 C 397.671875 508.890625 397.671875 508.980469 397.671875 509.074219 C 397.667969 509.109375 397.652344 509.359375 397.660156 509.34375 C 397.632812 509.5 397.585938 509.65625 397.535156 509.804688 C 397.507812 509.886719 397.476562 509.964844 397.445312 510.042969 C 397.433594 510.058594 397.421875 510.085938 397.402344 510.117188 C 397.304688 510.289062 397.222656 510.457031 397.121094 510.621094 C 397.078125 510.6875 397.035156 510.753906 396.992188 510.816406 C 396.984375 510.824219 396.84375 511.015625 396.859375 511 C 396.625 511.289062 396.347656 511.550781 396.066406 511.792969 C 395.949219 511.890625 395.832031 511.984375 395.710938 512.078125 C 395.703125 512.078125 395.488281 512.238281 395.5 512.226562 C 395.394531 512.300781 395.289062 512.375 395.179688 512.445312 C 393.792969 513.367188 392.429688 514.332031 391.378906 515.644531 C 390.527344 516.710938 389.90625 517.972656 389.535156 519.285156 C 389.097656 520.839844 389.007812 522.429688 389.296875 524.019531 C 389.40625 524.621094 389.613281 525.199219 389.890625 525.75 " fill-opacity="1" fill-rule="nonzero"/></g><g clip-path="url(#af5031ce91)"><path fill="#587538" d="M 390.148438 525.75 L 391.644531 525.75 C 391.5625 525.242188 391.5 524.710938 391.484375 524.261719 C 391.460938 523.429688 391.507812 522.617188 391.617188 521.789062 C 391.800781 520.394531 392.296875 519.0625 393.265625 518.054688 C 395.03125 516.214844 397.597656 515.351562 398.929688 513.035156 C 399.335938 512.332031 399.59375 511.5625 399.730469 510.757812 C 399.8125 510.253906 399.789062 509.730469 399.730469 509.21875 C 399.695312 509.109375 399.660156 509 399.628906 508.890625 C 399.59375 509.519531 399.40625 510.113281 399.203125 510.714844 C 398.972656 511.398438 398.601562 512.058594 398.152344 512.605469 C 397.339844 513.601562 396.257812 514.292969 395.195312 514.953125 C 394.121094 515.625 393.019531 516.347656 392.164062 517.3125 C 391.742188 517.789062 391.402344 518.316406 391.140625 518.882812 C 391.589844 517.316406 392.414062 515.859375 393.398438 514.574219 C 393.40625 514.5625 393.386719 514.546875 393.375 514.554688 C 391.742188 516.15625 390.550781 518.179688 390.175781 520.464844 C 390.0625 521.175781 390.035156 521.886719 390.089844 522.59375 C 389.980469 522.179688 389.894531 521.761719 389.863281 521.332031 C 389.8125 520.59375 389.898438 519.851562 389.980469 519.121094 C 389.984375 519.082031 389.921875 519.070312 389.914062 519.109375 C 389.742188 519.8125 389.570312 520.523438 389.519531 521.25 C 389.46875 521.96875 389.550781 522.707031 389.632812 523.421875 C 389.726562 524.207031 389.890625 524.996094 390.148438 525.75 " fill-opacity="1" fill-rule="nonzero"/></g><path fill="#587538" d="M 396.90625 501.035156 C 397.035156 499.628906 397.605469 498.203125 398.074219 496.882812 C 398.550781 495.542969 399.222656 494.386719 399.347656 492.957031 C 399.375 492.683594 399.390625 492.40625 399.398438 492.121094 C 399.382812 491.722656 399.34375 491.324219 399.273438 490.925781 C 399.1875 490.429688 399.105469 489.730469 398.855469 489.179688 C 398.914062 489.8125 398.941406 490.453125 398.878906 491.082031 C 398.808594 491.804688 398.605469 492.515625 398.371094 493.199219 C 397.894531 494.589844 397.332031 495.941406 396.792969 497.3125 C 396.253906 498.667969 395.867188 500.085938 396.109375 501.554688 C 396.339844 502.96875 397.105469 504.503906 397.867188 505.507812 C 397.878906 505.527344 397.84375 505.4375 397.832031 505.417969 C 396.886719 503.890625 396.769531 502.5 396.90625 501.035156 " fill-opacity="1" fill-rule="nonzero"/><path fill="#587538" d="M 398.734375 508.71875 C 398.492188 508.011719 398.015625 507.398438 397.582031 506.808594 C 397.140625 506.207031 396.679688 505.609375 396.210938 505.027344 C 396.066406 504.789062 395.925781 504.542969 395.792969 504.292969 C 395.480469 503.695312 395.25 503.054688 395.113281 502.394531 C 394.972656 501.703125 394.804688 500.992188 394.828125 500.285156 C 394.828125 500.273438 394.8125 500.269531 394.808594 500.28125 C 394.675781 500.863281 394.519531 501.460938 394.539062 502.058594 C 394.5625 502.667969 394.695312 503.296875 394.886719 503.875 C 395.269531 505.027344 395.953125 506.027344 396.480469 507.113281 C 396.976562 508.140625 397.285156 509.355469 396.859375 510.460938 C 396.667969 510.953125 396.328125 511.386719 395.964844 511.761719 C 395.582031 512.160156 394.984375 512.457031 394.589844 512.835938 C 394.519531 512.90625 394.296875 513.007812 394.386719 512.992188 C 395.375 512.816406 396.667969 511.785156 397.179688 510.964844 C 397.355469 510.679688 397.5 510.398438 397.609375 510.113281 C 397.5 511.289062 396.832031 512.351562 396.105469 513.253906 C 396.078125 513.289062 396.132812 513.332031 396.164062 513.304688 C 397.210938 512.363281 398.09375 511.125 398.128906 509.65625 C 398.140625 509.320312 398.097656 508.980469 398.015625 508.644531 C 398.601562 509.871094 398.511719 511.257812 397.792969 512.410156 C 397.78125 512.433594 397.8125 512.460938 397.832031 512.441406 C 398.683594 511.464844 399.167969 509.980469 398.734375 508.71875 " fill-opacity="1" fill-rule="nonzero"/><path fill="#6ca04f" d="M 399.371094 491.675781 C 399.347656 491.425781 399.316406 491.175781 399.273438 490.925781 C 399.171875 490.34375 399.074219 489.476562 398.707031 488.90625 C 398.777344 489.148438 398.785156 489.421875 398.785156 489.675781 C 398.800781 489.84375 398.804688 490.011719 398.792969 490.179688 C 398.792969 490.332031 398.785156 490.492188 398.765625 490.644531 C 398.765625 490.652344 398.765625 490.65625 398.765625 490.664062 C 398.738281 491.457031 398.636719 492.21875 398.386719 492.976562 C 397.910156 494.425781 397.316406 495.832031 396.839844 497.285156 C 396.839844 497.289062 396.847656 497.296875 396.851562 497.289062 C 397.300781 496.609375 397.625 495.851562 397.941406 495.101562 C 398.273438 494.3125 398.648438 493.535156 398.902344 492.71875 C 398.929688 492.636719 398.953125 492.550781 398.976562 492.460938 C 398.832031 493.367188 398.582031 494.277344 398.289062 495.128906 C 398.28125 495.148438 398.3125 495.164062 398.324219 495.144531 C 398.878906 494.097656 399.164062 492.90625 399.359375 491.742188 C 399.363281 491.71875 399.367188 491.695312 399.371094 491.675781 " fill-opacity="1" fill-rule="nonzero"/><g clip-path="url(#dbbf76b006)"><path fill="#6ca04f" d="M 390.59375 525.75 L 391.757812 525.75 C 391.652344 525.242188 391.5625 524.730469 391.511719 524.210938 C 391.40625 523.179688 391.421875 522.140625 391.535156 521.109375 C 391.644531 520.078125 391.957031 519.136719 392.539062 518.28125 C 393.09375 517.46875 393.824219 516.777344 394.554688 516.125 C 394.589844 516.09375 394.539062 516.042969 394.503906 516.070312 C 393.6875 516.710938 392.898438 517.375 392.242188 518.1875 C 391.582031 519.003906 391.191406 519.921875 391 520.953125 C 390.871094 521.667969 390.804688 522.40625 390.808594 523.152344 C 390.597656 521.886719 390.601562 520.617188 390.84375 519.347656 C 390.847656 519.332031 390.832031 519.328125 390.824219 519.339844 C 390.304688 520.617188 390.320312 522.027344 390.484375 523.378906 C 390.558594 523.992188 390.671875 524.601562 390.796875 525.207031 C 390.484375 524.46875 390.195312 523.703125 389.953125 522.9375 C 389.949219 522.921875 389.925781 522.925781 389.929688 522.945312 C 390.035156 523.796875 390.203125 524.613281 390.480469 525.425781 C 390.519531 525.535156 390.554688 525.644531 390.59375 525.75 " fill-opacity="1" fill-rule="nonzero"/></g><path fill="#6ca04f" d="M 396.800781 506.070312 C 396.761719 506.003906 396.726562 505.9375 396.691406 505.871094 C 396.757812 505.96875 396.828125 506.070312 396.902344 506.171875 C 396.867188 506.136719 396.835938 506.101562 396.800781 506.070312 Z M 398.5 508.046875 C 397.957031 506.835938 396.980469 505.921875 396.144531 504.917969 C 395.792969 504.308594 395.449219 503.691406 395.183594 503.046875 C 395.175781 503.027344 395.144531 503.042969 395.148438 503.0625 C 395.425781 504.203125 395.953125 505.222656 396.519531 506.246094 C 397.125 507.34375 397.726562 508.503906 397.855469 509.773438 C 397.859375 509.808594 397.914062 509.816406 397.917969 509.773438 C 397.933594 508.601562 397.566406 507.574219 397.074219 506.589844 C 397.625 507.320312 398.070312 508.113281 398.488281 508.953125 C 398.492188 508.957031 398.496094 508.960938 398.5 508.960938 C 398.769531 509.761719 398.820312 510.597656 398.453125 511.472656 C 398.453125 511.476562 398.457031 511.476562 398.457031 511.476562 C 399.128906 510.441406 398.988281 509.125 398.5 508.046875 " fill-opacity="1" fill-rule="nonzero"/><path fill="#6ca04f" d="M 399.535156 508.628906 C 399.523438 508.601562 399.484375 508.546875 399.488281 508.574219 C 399.761719 509.910156 399.339844 511.476562 398.625 512.617188 C 397.890625 513.789062 396.769531 514.65625 395.667969 515.453125 C 395.660156 515.460938 395.667969 515.472656 395.675781 515.46875 C 397.878906 514.140625 400.78125 511.53125 399.535156 508.628906 " fill-opacity="1" fill-rule="nonzero"/><g clip-path="url(#d773970c06)"><path fill="#3f782f" d="M 386.996094 525.75 L 387.375 525.75 C 387.222656 524.898438 387.054688 523.945312 387.085938 523.742188 C 387.148438 523.371094 387.226562 523.015625 387.277344 522.644531 C 387.367188 521.945312 387.496094 521.25 387.65625 520.5625 C 387.984375 519.15625 388.460938 517.777344 388.960938 516.410156 C 389.453125 515.058594 390.023438 513.917969 390.800781 512.636719 C 391.21875 511.941406 391.71875 511.277344 392.1875 510.601562 C 392.257812 510.515625 392.332031 510.425781 392.402344 510.339844 C 393.273438 509.273438 393.871094 507.808594 394.035156 506.492188 C 394.378906 503.730469 393.117188 501.644531 392.746094 501.105469 C 392.398438 500.605469 392.125 500.144531 391.808594 499.625 C 391.625 499.324219 391.507812 499.03125 391.460938 498.722656 C 391.449219 498.566406 391.445312 498.40625 391.453125 498.25 C 391.453125 498.222656 391.453125 498.191406 391.457031 498.164062 C 391.457031 498.152344 391.457031 498.140625 391.460938 498.125 C 391.535156 497.546875 391.78125 496.972656 392.039062 496.441406 C 392.628906 495.234375 393.296875 494.078125 393.496094 492.757812 C 393.59375 492.117188 393.59375 491.460938 393.414062 490.832031 C 393.261719 490.304688 392.980469 489.820312 392.65625 489.363281 C 392.5 489.035156 392.300781 488.71875 392.070312 488.421875 C 391.84375 488.128906 391.597656 487.851562 391.382812 487.554688 C 391.265625 487.398438 391.152344 487.242188 391.035156 487.089844 C 390.683594 486.546875 390.367188 485.984375 390.113281 485.390625 C 389.828125 484.726562 389.597656 484.027344 389.484375 483.324219 C 389.363281 482.5625 389.429688 481.855469 389.726562 481.128906 C 389.769531 481.027344 389.578125 480.953125 389.527344 481.054688 C 388.972656 482.121094 388.679688 483.40625 388.835938 484.582031 C 388.996094 485.765625 389.523438 486.878906 390.148438 487.925781 C 390.222656 488.074219 390.296875 488.226562 390.363281 488.378906 C 390.605469 488.960938 390.710938 489.597656 390.84375 490.207031 C 390.847656 490.21875 390.859375 490.292969 390.863281 490.304688 C 390.871094 490.351562 390.875 490.402344 390.878906 490.453125 C 390.890625 490.613281 390.890625 490.777344 390.890625 490.9375 C 390.890625 491.238281 390.886719 491.539062 390.847656 491.839844 C 390.84375 491.863281 390.832031 491.917969 390.828125 491.933594 C 390.8125 492.011719 390.796875 492.09375 390.78125 492.175781 C 390.746094 492.320312 390.710938 492.464844 390.671875 492.605469 C 390.582031 492.929688 390.464844 493.25 390.34375 493.5625 C 390.105469 494.171875 389.84375 494.769531 389.605469 495.375 C 389.078125 496.707031 388.753906 498.050781 389.003906 499.464844 C 389.140625 500.257812 389.527344 500.992188 389.90625 501.714844 C 389.980469 501.855469 390.054688 501.996094 390.125 502.136719 C 390.167969 502.222656 390.210938 502.308594 390.253906 502.394531 C 390.261719 502.414062 390.269531 502.425781 390.273438 502.4375 C 390.28125 502.449219 390.289062 502.46875 390.296875 502.488281 C 390.453125 502.839844 390.605469 503.199219 390.734375 503.558594 C 390.851562 503.886719 390.953125 504.214844 391.039062 504.546875 C 391.078125 504.714844 391.117188 504.878906 391.148438 505.046875 C 391.164062 505.117188 391.175781 505.183594 391.1875 505.253906 C 391.1875 505.28125 391.210938 505.457031 391.210938 505.464844 C 391.242188 505.796875 391.253906 506.128906 391.238281 506.460938 C 391.234375 506.554688 391.226562 506.644531 391.21875 506.734375 C 391.214844 506.773438 391.199219 506.890625 391.199219 506.902344 C 391.171875 507.050781 391.140625 507.203125 391.097656 507.351562 C 391.050781 507.53125 390.992188 507.710938 390.921875 507.882812 C 390.902344 507.9375 390.878906 507.992188 390.855469 508.046875 C 390.84375 508.074219 390.820312 508.125 390.8125 508.136719 C 390.621094 508.488281 390.40625 508.824219 390.175781 509.152344 C 389.738281 509.785156 389.308594 510.417969 388.929688 511.078125 C 388.164062 512.414062 387.554688 513.8125 387.085938 515.25 C 386.570312 516.828125 386.34375 518.421875 386.292969 520.0625 C 386.265625 520.867188 386.304688 521.671875 386.394531 522.476562 C 386.453125 523.019531 386.757812 524.570312 386.996094 525.75 " fill-opacity="1" fill-rule="nonzero"/></g><path fill="#529240" d="M 391.539062 494.214844 C 391.523438 494.398438 391.503906 494.574219 391.472656 494.75 C 391.601562 494.488281 391.71875 494.21875 391.824219 493.945312 C 392.1875 492.996094 392.210938 492.011719 392.195312 491.015625 C 392.105469 490.585938 391.996094 490.207031 391.925781 489.988281 C 391.273438 487.898438 389.246094 486.347656 389.222656 484.027344 C 389.222656 483.996094 389.210938 483.96875 389.195312 483.949219 C 389.1875 482.777344 389.4375 481.621094 389.9375 480.558594 C 389.945312 480.542969 389.921875 480.523438 389.910156 480.539062 C 388.546875 481.996094 388.054688 484.179688 388.574219 486.105469 C 389.140625 488.207031 391.316406 489.292969 391.625 492.675781 C 391.671875 493.1875 391.574219 493.703125 391.539062 494.214844 " fill-opacity="1" fill-rule="nonzero"/><path fill="#529240" d="M 392.917969 505.507812 C 392.808594 504.578125 392.363281 503.78125 391.917969 502.980469 C 391.410156 502.078125 390.925781 501.179688 390.5625 500.207031 C 390.175781 499.167969 389.863281 498.0625 390.175781 496.960938 C 390.195312 496.898438 390.171875 496.949219 390.148438 497.007812 C 389.816406 497.832031 389.726562 498.726562 389.824219 499.605469 C 389.921875 500.503906 390.246094 501.3125 390.625 502.125 C 391.035156 502.992188 391.546875 503.828125 391.882812 504.730469 C 392.203125 505.601562 392.183594 506.476562 391.890625 507.351562 C 391.304688 509.105469 389.941406 510.371094 388.835938 511.789062 C 387.78125 513.144531 387.09375 514.6875 386.734375 516.371094 C 386.535156 517.316406 386.351562 518.28125 386.300781 519.25 C 386.246094 520.246094 386.359375 521.214844 386.421875 522.210938 C 386.429688 522.328125 386.453125 522.332031 386.460938 522.210938 C 386.515625 521.347656 386.597656 520.480469 386.683594 519.621094 C 386.769531 518.746094 387.046875 517.875 387.242188 517.015625 C 387.628906 515.332031 388.292969 513.726562 389.339844 512.34375 C 390.414062 510.925781 391.796875 509.6875 392.496094 508.019531 C 392.828125 507.226562 393.015625 506.367188 392.917969 505.507812 " fill-opacity="1" fill-rule="nonzero"/><g clip-path="url(#8e4a2dee27)"><path fill="#266830" d="M 387.761719 525.75 C 387.582031 523.304688 387.832031 520.789062 388.5 518.441406 C 388.894531 517.058594 389.460938 515.742188 390.171875 514.496094 C 390.863281 513.277344 391.640625 512.109375 392.34375 510.894531 C 393.113281 509.5625 393.765625 508.082031 394.019531 506.550781 C 394.023438 506.539062 394.007812 506.601562 394 506.613281 C 393.398438 507.914062 392.726562 509.117188 391.894531 510.277344 C 391.050781 511.457031 390.148438 512.582031 389.390625 513.824219 C 387.847656 516.355469 386.964844 519.289062 386.894531 522.261719 C 386.867188 523.414062 386.882812 524.609375 387.074219 525.75 L 387.761719 525.75 " fill-opacity="1" fill-rule="nonzero"/></g><path fill="#266830" d="M 392.972656 501.550781 C 392.671875 500.972656 392.316406 500.433594 391.957031 499.894531 C 391.851562 499.738281 391.761719 499.578125 391.683594 499.414062 C 391.53125 499.058594 391.414062 498.6875 391.390625 498.300781 C 391.378906 498.09375 391.378906 497.878906 391.394531 497.664062 C 391.496094 497.292969 391.632812 496.9375 391.820312 496.609375 C 392.011719 496.160156 392.253906 495.734375 392.484375 495.300781 C 393.121094 494.117188 393.699219 492.847656 393.519531 491.472656 C 393.347656 490.171875 392.503906 489.089844 391.78125 488.046875 C 391.773438 488.03125 391.75 488.042969 391.757812 488.058594 C 392.421875 489.199219 393.101562 490.5625 392.847656 491.933594 C 392.59375 493.3125 391.621094 494.429688 391.011719 495.65625 C 390.441406 496.800781 390.144531 498.035156 390.324219 499.3125 C 390.410156 499.898438 390.625 500.453125 390.875 500.984375 C 391.136719 501.53125 391.40625 502.03125 391.855469 502.445312 C 391.863281 502.449219 391.875 502.457031 391.882812 502.460938 C 391.578125 501.847656 391.347656 501.199219 391.253906 500.5 C 391.246094 500.421875 391.234375 500.34375 391.226562 500.265625 C 391.523438 500.875 391.960938 501.347656 392.363281 501.894531 C 392.585938 502.1875 392.792969 502.492188 392.984375 502.804688 C 393.03125 502.898438 393.082031 502.992188 393.128906 503.085938 C 393.457031 503.75 393.832031 504.46875 393.871094 505.222656 C 393.871094 505.242188 393.902344 505.25 393.90625 505.226562 C 394.128906 503.941406 393.554688 502.667969 392.972656 501.550781 " fill-opacity="1" fill-rule="nonzero"/><path fill="#266830" d="M 391.175781 487.875 C 390.832031 487.296875 390.507812 486.707031 390.226562 486.089844 C 389.949219 485.480469 389.667969 484.835938 389.601562 484.160156 C 389.46875 482.835938 389.75 481.402344 390.105469 480.128906 C 390.117188 480.085938 390.050781 480.054688 390.03125 480.097656 C 389.402344 481.320312 388.929688 482.839844 389.082031 484.234375 C 389.238281 485.648438 390.3125 486.816406 391.121094 487.90625 C 391.144531 487.9375 391.195312 487.910156 391.175781 487.875 " fill-opacity="1" fill-rule="nonzero"/><path fill="#64ac4f" d="M 390.203125 488.492188 C 389.777344 487.847656 389.367188 487.191406 388.972656 486.523438 C 388.875 486.355469 388.777344 486.183594 388.683594 486.007812 C 388.472656 485.414062 388.359375 484.792969 388.484375 484.164062 C 388.496094 484.105469 388.507812 484.050781 388.523438 483.996094 C 388.539062 484.25 388.574219 484.492188 388.632812 484.714844 C 388.972656 486.078125 389.972656 487.246094 390.652344 488.449219 C 390.664062 488.46875 390.695312 488.453125 390.683594 488.429688 C 390.378906 487.855469 390.101562 487.265625 389.824219 486.675781 C 389.542969 486.082031 389.238281 485.472656 389.054688 484.839844 C 388.894531 484.269531 388.871094 483.667969 388.972656 483.085938 C 389.070312 482.542969 389.304688 482.066406 389.476562 481.550781 C 389.71875 480.917969 389.933594 480.273438 390.183594 479.644531 C 390.195312 479.613281 390.148438 479.59375 390.132812 479.621094 C 389.710938 480.449219 389.21875 481.238281 388.828125 482.082031 C 388.492188 482.800781 388.140625 483.539062 388.066406 484.339844 C 387.9375 484.949219 388.078125 485.507812 388.34375 486.070312 C 388.421875 486.230469 388.503906 486.394531 388.589844 486.550781 C 388.601562 486.578125 388.613281 486.605469 388.625 486.628906 C 388.757812 486.898438 388.910156 487.15625 389.078125 487.398438 C 389.234375 487.648438 389.390625 487.894531 389.546875 488.140625 C 390.378906 489.453125 391.589844 490.792969 391.613281 492.429688 C 391.613281 492.453125 391.644531 492.453125 391.648438 492.429688 C 391.777344 490.9375 390.980469 489.683594 390.203125 488.492188 " fill-opacity="1" fill-rule="nonzero"/><path fill="#64ac4f" d="M 392.914062 504.695312 C 392.613281 503.707031 391.910156 502.933594 391.402344 502.054688 C 390.882812 501.160156 390.460938 500.15625 390.214844 499.144531 C 390.210938 499.136719 390.199219 499.140625 390.199219 499.148438 C 390.335938 500.058594 390.550781 500.90625 390.925781 501.746094 C 391.007812 501.921875 391.09375 502.09375 391.1875 502.261719 C 391.667969 503.261719 392.167969 504.265625 392.253906 505.386719 C 392.347656 506.644531 391.949219 507.984375 391.152344 508.957031 C 391.140625 508.96875 391.160156 508.988281 391.171875 508.976562 C 392.097656 508.023438 392.636719 506.789062 392.570312 505.445312 C 392.554688 505.074219 392.496094 504.710938 392.402344 504.359375 C 393.210938 506.160156 392.585938 508.257812 391.355469 509.699219 C 391.339844 509.71875 391.363281 509.746094 391.382812 509.726562 C 392.726562 508.445312 393.472656 506.539062 392.914062 504.695312 " fill-opacity="1" fill-rule="nonzero"/><g clip-path="url(#65326ecf25)"><path fill="#64ac4f" d="M 387.066406 525.75 L 387.167969 525.75 C 387.066406 525.167969 386.972656 524.613281 386.972656 524.589844 C 386.96875 524.511719 386.96875 524.4375 386.964844 524.359375 C 386.976562 524.0625 386.960938 523.765625 386.9375 523.472656 C 386.871094 521.460938 386.824219 519.441406 387.203125 517.453125 C 387.589844 515.429688 388.367188 513.320312 389.730469 511.753906 C 389.730469 511.75 389.726562 511.746094 389.722656 511.746094 C 388.617188 512.890625 387.824219 514.210938 387.316406 515.675781 C 387.40625 515.121094 387.523438 514.574219 387.71875 514.046875 C 388.117188 512.964844 388.75 512.003906 389.378906 511.046875 C 389.378906 511.046875 389.375 511.042969 389.375 511.046875 C 388.691406 511.96875 387.992188 512.90625 387.503906 513.953125 C 387.007812 515.019531 386.828125 516.183594 386.667969 517.339844 C 386.5 518.570312 386.382812 519.808594 386.378906 521.050781 C 386.375 522.179688 386.6875 523.417969 386.851562 524.5625 C 386.914062 524.980469 386.988281 525.390625 387.066406 525.75 " fill-opacity="1" fill-rule="nonzero"/></g><g clip-path="url(#e32cd56a07)"><path fill="#86c75a" d="M 382.964844 480.503906 C 383.414062 481.398438 383.570312 482.417969 383.832031 483.375 C 383.832031 483.378906 383.832031 483.378906 383.835938 483.382812 C 383.976562 483.757812 384.105469 484.140625 384.21875 484.519531 C 384.726562 486.199219 384.84375 487.972656 385.429688 489.628906 C 385.703125 490.402344 386.117188 491.097656 386.464844 491.835938 C 386.761719 492.46875 386.960938 493.109375 386.714844 493.796875 C 386.414062 494.652344 385.902344 495.457031 385.484375 496.261719 C 385.0625 497.070312 384.625 497.875 384.257812 498.714844 C 383.527344 500.394531 383.207031 502.183594 383.980469 503.90625 C 384.269531 504.5625 384.695312 505.207031 384.636719 505.949219 C 384.582031 506.621094 384.246094 507.253906 383.960938 507.847656 C 383.304688 509.203125 382.617188 511.085938 383.449219 512.503906 C 383.820312 513.136719 384.328125 513.65625 384.808594 514.203125 C 385.300781 514.761719 385.679688 515.371094 385.96875 516.0625 C 386.632812 517.660156 386.859375 519.027344 386.554688 520.710938 C 386.300781 522.085938 385.363281 523.941406 384.625 525.75 L 385.332031 525.75 C 386.046875 524.308594 386.90625 522.804688 387.242188 521.6875 C 387.726562 520.085938 387.945312 518.394531 387.722656 516.726562 C 387.511719 515.136719 386.800781 513.789062 385.761719 512.589844 C 385.332031 512.09375 384.804688 511.5625 384.648438 510.902344 C 384.492188 510.246094 384.738281 509.617188 385.003906 509.027344 C 385.644531 507.609375 386.457031 506.273438 385.933594 504.671875 C 385.675781 503.886719 385.1875 503.183594 385.058594 502.363281 C 384.933594 501.554688 385.136719 500.738281 385.417969 499.988281 C 386.078125 498.210938 387.125 496.59375 387.949219 494.894531 C 388.34375 494.078125 388.515625 493.203125 388.296875 492.308594 C 388.097656 491.496094 387.675781 490.773438 387.300781 490.035156 C 386.417969 488.285156 386.214844 486.292969 385.5 484.480469 C 385.347656 484.085938 385.171875 483.703125 384.984375 483.332031 C 384.902344 483.039062 384.808594 482.75 384.714844 482.464844 C 384.492188 481.808594 384.304688 481.140625 383.898438 480.574219 C 383.535156 480.066406 383.042969 479.621094 382.527344 479.277344 C 381.972656 478.90625 381.390625 478.753906 380.777344 478.519531 C 380.773438 478.515625 380.773438 478.523438 380.777344 478.527344 C 381.347656 478.808594 381.871094 479.335938 382.316406 479.785156 C 382.542969 480.011719 382.765625 480.25 382.964844 480.503906 " fill-opacity="1" fill-rule="nonzero"/></g><g clip-path="url(#7cde0dbcb1)"><path fill="#7cb450" d="M 384.8125 484.277344 C 384.882812 484.4375 384.953125 484.601562 385.015625 484.761719 C 385.261719 485.378906 385.472656 486.011719 385.632812 486.65625 C 385.808594 487.382812 385.925781 488.121094 386.128906 488.839844 C 386.339844 489.589844 386.640625 490.265625 387.070312 490.914062 C 387.441406 491.480469 387.886719 492.035156 388.03125 492.714844 C 388.347656 494.1875 387.496094 495.625 386.703125 496.789062 C 385.800781 498.105469 384.871094 499.433594 384.550781 501.035156 C 384.402344 501.785156 384.410156 502.570312 384.640625 503.304688 C 384.867188 504.003906 385.351562 504.625 385.484375 505.351562 C 385.691406 506.515625 384.96875 507.71875 384.609375 508.785156 C 384.371094 509.496094 384.214844 510.234375 384.277344 510.988281 C 384.3125 511.421875 384.441406 511.824219 384.625 512.203125 C 384.769531 512.636719 385.007812 513.046875 385.296875 513.417969 C 385.574219 513.769531 385.875 514.105469 386.152344 514.460938 C 386.21875 514.417969 386.3125 514.414062 386.378906 514.496094 C 387.4375 515.753906 387.675781 517.464844 387.558594 519.066406 C 387.449219 520.546875 386.925781 521.933594 386.285156 523.257812 C 386.035156 524.101562 385.746094 524.941406 385.410156 525.75 L 385.46875 525.75 C 386.710938 523.824219 387.625 521.769531 388.222656 519.542969 C 388.503906 518.492188 388.671875 517.433594 388.578125 516.339844 C 388.488281 515.273438 387.976562 514.238281 387.277344 513.445312 C 387.183594 513.335938 387.078125 513.226562 386.972656 513.117188 C 386.941406 513.074219 386.914062 513.035156 386.882812 512.992188 C 386.519531 512.503906 386.109375 512 385.875 511.429688 C 385.667969 510.921875 385.695312 510.363281 385.832031 509.839844 C 386.164062 508.5625 386.871094 507.402344 386.984375 506.066406 C 387.054688 505.308594 386.871094 504.59375 386.542969 503.917969 C 386.214844 503.25 385.894531 502.648438 385.929688 501.882812 C 386 500.316406 386.976562 499.046875 387.78125 497.78125 C 388.574219 496.527344 389.355469 495.132812 389.402344 493.609375 C 389.359375 492.871094 389.097656 492.1875 388.730469 491.542969 C 388.417969 490.996094 388.09375 490.464844 387.785156 489.921875 C 387.738281 489.855469 387.691406 489.785156 387.648438 489.710938 C 387.28125 489.101562 387.066406 488.410156 386.941406 487.710938 C 386.828125 487.082031 386.851562 486.433594 386.714844 485.808594 C 386.691406 485.722656 386.664062 485.636719 386.640625 485.546875 C 386.558594 485.371094 386.472656 485.199219 386.382812 485.027344 C 386.136719 484.5625 385.863281 484.121094 385.625 483.664062 C 385.425781 483.378906 385.246094 483.085938 385.105469 482.753906 C 384.910156 482.300781 384.761719 481.832031 384.554688 481.382812 C 384.4375 481.222656 384.316406 481.066406 384.191406 480.914062 C 383.941406 480.605469 383.683594 480.28125 383.386719 480.015625 C 383.230469 479.875 383.054688 479.75 382.878906 479.628906 C 383.5 480.300781 383.988281 481.074219 384.222656 481.984375 C 384.421875 482.746094 384.617188 483.515625 384.8125 484.277344 " fill-opacity="1" fill-rule="nonzero"/></g><path fill="#6c9d3c" d="M 388.183594 516.339844 C 387.921875 514.847656 386.972656 513.667969 386.085938 512.492188 C 386.078125 512.484375 386.0625 512.496094 386.066406 512.507812 C 386.496094 513.316406 386.929688 514.105469 387.242188 514.945312 C 387.191406 514.863281 387.140625 514.78125 387.085938 514.699219 C 386.84375 514.324219 386.566406 513.964844 386.296875 513.597656 C 386.160156 513.375 386.019531 513.152344 385.902344 512.933594 C 385.675781 512.503906 385.460938 512.058594 385.308594 511.59375 C 385.121094 511.003906 385.257812 510.304688 385.445312 509.726562 C 385.453125 509.707031 385.417969 509.695312 385.410156 509.714844 C 385.1875 510.226562 384.894531 510.773438 384.875 511.34375 C 384.875 511.375 384.875 511.40625 384.875 511.4375 C 384.847656 511.359375 384.820312 511.277344 384.796875 511.195312 C 384.785156 510.960938 384.800781 510.722656 384.871094 510.488281 C 385.066406 509.855469 385.382812 509.257812 385.636719 508.648438 C 386.125 507.484375 386.613281 506.332031 386.25 505.0625 C 386.246094 505.046875 386.226562 505.050781 386.230469 505.066406 C 386.34375 505.847656 386.042969 506.59375 385.730469 507.292969 C 385.605469 507.574219 385.472656 507.851562 385.34375 508.128906 C 385.386719 507.910156 385.425781 507.6875 385.457031 507.464844 C 385.53125 506.949219 385.621094 506.421875 385.570312 505.898438 C 385.570312 505.894531 385.5625 505.894531 385.5625 505.898438 C 385.507812 506.554688 385.222656 507.175781 385.035156 507.796875 C 385.023438 507.84375 385.007812 507.890625 384.992188 507.941406 C 384.785156 508.398438 384.574219 508.882812 384.433594 509.375 C 384.035156 510.480469 384.003906 511.554688 384.664062 512.570312 C 384.980469 513.0625 385.378906 513.492188 385.726562 513.960938 C 386.097656 514.457031 386.425781 515 386.699219 515.558594 C 387.28125 516.742188 387.519531 518.023438 387.382812 519.335938 C 387.371094 519.46875 387.351562 519.597656 387.332031 519.726562 C 387.308594 519.8125 387.292969 519.894531 387.285156 519.980469 C 387.191406 520.46875 387.050781 520.949219 386.898438 521.421875 C 386.683594 522.082031 386.480469 522.742188 386.242188 523.394531 C 386.226562 523.441406 386.21875 523.449219 386.238281 523.40625 C 386.550781 522.78125 386.960938 522.1875 387.210938 521.535156 C 387.417969 521.003906 388.570312 518.527344 388.183594 516.339844 " fill-opacity="1" fill-rule="nonzero"/><path fill="#6c9d3c" d="M 389.515625 493.140625 C 389.363281 492.207031 388.746094 491.457031 388.199219 490.71875 C 388.175781 490.691406 388.132812 490.722656 388.148438 490.753906 C 388.503906 491.519531 388.847656 492.363281 388.882812 493.222656 C 388.839844 493.011719 388.78125 492.800781 388.714844 492.578125 C 388.710938 492.5625 388.6875 492.566406 388.691406 492.582031 C 388.800781 493.414062 388.695312 494.214844 388.363281 494.988281 C 388.300781 495.136719 388.226562 495.285156 388.144531 495.425781 C 388.207031 495.230469 388.253906 495.03125 388.296875 494.839844 C 388.441406 494.125 388.402344 493.441406 388.152344 492.757812 C 387.894531 492.0625 387.445312 491.4375 387.039062 490.828125 C 387.035156 490.820312 387.027344 490.828125 387.027344 490.832031 C 387.761719 492.113281 388.34375 493.464844 387.734375 494.925781 C 387.617188 495.210938 387.496094 495.496094 387.359375 495.773438 C 386.945312 496.425781 386.496094 497.0625 386.042969 497.683594 C 385.808594 498.003906 385.660156 498.367188 385.457031 498.707031 C 385.375 498.84375 385.308594 498.984375 385.261719 499.132812 C 385.148438 499.347656 385.058594 499.574219 384.996094 499.808594 C 384.847656 500.144531 384.730469 500.492188 384.65625 500.847656 C 384.441406 501.324219 384.363281 501.886719 384.46875 502.394531 C 384.589844 503.433594 385.230469 504.34375 385.515625 505.34375 C 385.519531 505.351562 385.53125 505.351562 385.53125 505.339844 C 385.449219 504.890625 385.375 504.4375 385.28125 503.988281 C 385.234375 503.503906 385.171875 503.015625 385.203125 502.535156 C 385.21875 502.246094 385.28125 501.957031 385.367188 501.675781 C 385.402344 501.964844 385.46875 502.25 385.558594 502.546875 C 385.796875 503.34375 386.273438 503.992188 386.601562 504.746094 C 386.609375 504.765625 386.636719 504.753906 386.632812 504.738281 C 386.570312 504.453125 386.503906 504.171875 386.441406 503.894531 C 386.417969 503.773438 386.402344 503.652344 386.386719 503.53125 C 386.261719 503.207031 386.160156 502.871094 386.09375 502.53125 C 385.96875 501.898438 386 501.257812 386.246094 500.660156 C 386.457031 500.140625 386.78125 499.683594 387.070312 499.207031 C 387.09375 499.152344 387.121094 499.097656 387.148438 499.042969 C 387.261719 498.859375 387.375 498.671875 387.484375 498.484375 C 387.984375 497.625 388.457031 496.75 388.882812 495.851562 C 389.292969 494.992188 389.675781 494.113281 389.515625 493.140625 " fill-opacity="1" fill-rule="nonzero"/><g clip-path="url(#273d8861a7)"><path fill="#6c9d3c" d="M 386.535156 486.113281 C 386.394531 485.585938 386.132812 485.03125 385.773438 484.582031 C 385.667969 484.40625 385.566406 484.230469 385.464844 484.050781 C 385.351562 483.839844 385.269531 483.601562 385.203125 483.355469 C 385.433594 483.6875 385.671875 484.011719 385.910156 484.339844 C 385.917969 484.347656 385.933594 484.335938 385.925781 484.328125 C 385.566406 483.660156 385.21875 482.988281 384.921875 482.289062 C 384.796875 481.992188 384.675781 481.644531 384.484375 481.363281 C 384.003906 480.1875 383.050781 479.289062 381.804688 478.914062 C 381.796875 478.914062 381.796875 478.921875 381.800781 478.925781 C 382.496094 479.28125 383.074219 479.808594 383.511719 480.457031 C 383.96875 481.132812 384.152344 481.914062 384.304688 482.703125 C 384.460938 483.503906 384.746094 484.257812 385.0625 485.003906 C 385.238281 485.421875 385.441406 486.027344 385.621094 486.640625 C 385.628906 486.679688 385.636719 486.714844 385.640625 486.753906 C 385.671875 487.148438 385.695312 487.546875 385.777344 487.929688 C 385.894531 488.757812 386.1875 489.503906 386.722656 490.171875 C 386.726562 490.171875 386.726562 490.171875 386.726562 490.167969 C 386.222656 489.222656 386.09375 488.042969 386.0625 486.980469 C 386.050781 486.632812 386.015625 486.285156 385.9375 485.953125 C 386.007812 486.140625 386.066406 486.332031 386.117188 486.535156 C 386.351562 487.441406 386.535156 488.367188 386.898438 489.234375 C 386.90625 489.253906 386.9375 489.242188 386.933594 489.222656 C 386.722656 488.195312 386.800781 487.128906 386.535156 486.113281 " fill-opacity="1" fill-rule="nonzero"/></g><g clip-path="url(#9bc90a3227)"><path fill="#9ad757" d="M 388.113281 493.183594 C 387.957031 492.363281 387.601562 491.601562 387.160156 490.90625 C 386.789062 490.316406 386.355469 489.773438 386.089844 489.132812 C 385.917969 488.519531 385.925781 487.898438 385.878906 487.257812 C 385.828125 486.589844 385.605469 486.027344 385.292969 485.445312 C 385.105469 485.09375 384.898438 484.746094 384.753906 484.375 C 384.742188 484.277344 384.730469 484.179688 384.71875 484.082031 C 384.628906 483.230469 384.648438 482.351562 384.351562 481.535156 C 383.785156 479.976562 382.265625 479.007812 380.769531 478.507812 C 380.753906 478.5 380.746094 478.523438 380.761719 478.53125 C 380.960938 478.632812 381.160156 478.738281 381.359375 478.851562 C 382.269531 479.613281 383.1875 480.382812 383.710938 481.484375 C 384.203125 482.511719 384.300781 483.65625 384.589844 484.75 C 384.589844 484.957031 384.605469 485.167969 384.640625 485.382812 C 384.652344 485.453125 384.664062 485.519531 384.683594 485.582031 C 384.738281 486.148438 384.875 486.71875 384.988281 487.253906 C 385.171875 488.109375 385.46875 488.957031 385.742188 489.785156 C 385.746094 489.804688 385.777344 489.800781 385.769531 489.78125 C 385.574219 488.917969 385.476562 488.058594 385.335938 487.1875 C 385.320312 487.085938 385.308594 486.984375 385.292969 486.882812 C 385.460938 487.277344 385.589844 487.683594 385.691406 488.101562 C 385.738281 488.554688 385.816406 488.996094 386.003906 489.429688 C 386.136719 489.742188 386.304688 490.042969 386.488281 490.332031 C 386.523438 490.390625 386.5625 490.453125 386.597656 490.511719 C 386.96875 491.113281 387.351562 491.714844 387.601562 492.378906 C 387.667969 492.707031 387.703125 493.039062 387.699219 493.375 C 387.503906 492.492188 386.96875 491.710938 386.507812 490.886719 C 386.507812 490.886719 386.503906 490.886719 386.503906 490.890625 C 386.613281 491.121094 386.714844 491.355469 386.800781 491.59375 C 386.796875 491.601562 386.792969 491.613281 386.796875 491.628906 C 386.96875 492.179688 387.003906 492.707031 386.992188 493.28125 C 386.980469 493.828125 386.949219 494.375 386.71875 494.882812 C 386.484375 495.394531 386.117188 495.847656 385.839844 496.339844 C 385.566406 496.832031 385.296875 497.324219 385.011719 497.808594 C 385.003906 497.820312 385.019531 497.832031 385.027344 497.820312 C 385.417969 497.292969 385.835938 496.792969 386.226562 496.269531 C 386.558594 495.824219 386.933594 495.351562 387.125 494.824219 C 387.253906 494.476562 387.292969 494.097656 387.289062 493.722656 C 387.316406 494.15625 387.292969 494.582031 387.214844 494.988281 C 387.128906 495.445312 386.980469 495.863281 386.789062 496.253906 C 386.589844 496.671875 386.019531 497.644531 385.996094 497.75 C 385.988281 497.796875 385.976562 497.816406 385.988281 497.796875 C 386.304688 497.289062 388.488281 495.132812 388.113281 493.183594 " fill-opacity="1" fill-rule="nonzero"/></g><path fill="#9ad757" d="M 385.566406 505.441406 C 385.5625 505.421875 385.558594 505.402344 385.554688 505.382812 C 385.449219 504.652344 385.082031 503.941406 384.78125 503.253906 C 384.488281 502.585938 384.375 501.929688 384.554688 501.210938 C 384.75 500.421875 385.042969 499.644531 385.304688 498.878906 C 385.304688 498.875 385.300781 498.871094 385.300781 498.875 C 384.816406 499.816406 384.1875 500.800781 384.109375 501.855469 C 383.980469 501.039062 384.066406 500.199219 384.425781 499.453125 C 384.429688 499.441406 384.414062 499.433594 384.410156 499.445312 C 383.9375 500.210938 383.660156 501.125 383.789062 502.03125 C 383.914062 502.933594 385.101562 505.042969 385.179688 505.378906 C 385.433594 506.4375 384.929688 507.839844 384.621094 508.8125 C 384.617188 508.824219 384.628906 508.902344 384.632812 508.894531 C 385.011719 507.984375 385.761719 506.492188 385.566406 505.441406 " fill-opacity="1" fill-rule="nonzero"/><path fill="#9ad757" d="M 386.980469 520.972656 C 386.8125 521.945312 386.445312 522.867188 386.042969 523.78125 C 387.339844 521.789062 388.066406 519.144531 387.25 516.859375 C 387.0625 516.335938 386.808594 515.707031 386.511719 515.246094 C 386.351562 514.960938 386.25 514.761719 386.089844 514.496094 C 385.542969 513.589844 384.84375 512.789062 384.390625 511.828125 C 384.214844 511.261719 384.121094 510.671875 384.152344 510.046875 C 384.152344 510.03125 384.132812 510.027344 384.128906 510.042969 C 383.980469 510.628906 383.960938 511.199219 384.042969 511.753906 C 384.027344 511.722656 384.011719 511.6875 383.996094 511.652344 C 383.785156 511.152344 383.652344 510.597656 383.679688 510.050781 C 383.710938 509.492188 383.917969 508.957031 384.03125 508.410156 C 384.035156 508.390625 384 508.382812 383.992188 508.402344 C 383.789062 508.988281 383.484375 509.535156 383.394531 510.15625 C 383.316406 510.683594 383.394531 511.222656 383.570312 511.722656 C 383.8125 512.425781 384.21875 513.066406 384.71875 513.613281 C 385.257812 514.566406 385.96875 515.410156 386.472656 516.382812 C 387.09375 517.578125 387.273438 518.917969 387.113281 520.25 C 387.082031 520.492188 387.039062 520.734375 386.980469 520.972656 " fill-opacity="1" fill-rule="nonzero"/><path fill="#447d30" d="M 389.261719 492.332031 C 389.253906 492.3125 389.21875 492.316406 389.226562 492.339844 C 389.390625 493.125 389.398438 494.046875 389.078125 494.804688 C 389.0625 494.792969 388.964844 495.011719 388.925781 495.105469 C 388.875 495.191406 388.8125 495.277344 388.75 495.355469 C 388.605469 495.503906 388.46875 495.660156 388.339844 495.828125 C 388.304688 495.867188 388.269531 495.90625 388.238281 495.945312 C 388.308594 495.730469 388.378906 495.511719 388.445312 495.289062 C 388.457031 495.257812 388.523438 494.863281 388.570312 494.671875 C 388.570312 494.660156 388.558594 494.65625 388.554688 494.667969 C 388.292969 495.433594 387.742188 496.109375 387.226562 496.722656 C 387.070312 496.90625 386.894531 497.089844 386.714844 497.277344 C 386.339844 497.566406 385.992188 497.878906 385.683594 498.257812 C 385.246094 498.792969 384.882812 499.425781 384.695312 500.09375 C 384.507812 500.78125 384.515625 501.460938 384.582031 502.164062 C 384.582031 502.167969 384.59375 502.167969 384.59375 502.164062 C 384.628906 501.039062 385.15625 499.820312 385.878906 498.882812 C 385.871094 498.910156 385.867188 498.941406 385.863281 498.96875 C 385.519531 499.585938 385.316406 500.269531 385.320312 501.015625 C 385.320312 501.03125 385.347656 501.039062 385.355469 501.019531 C 385.574219 500.367188 385.851562 499.722656 386.230469 499.144531 C 386.460938 498.792969 386.734375 498.492188 387.019531 498.195312 C 386.632812 499.054688 386.300781 499.941406 385.996094 500.832031 C 385.988281 500.859375 386.027344 500.882812 386.042969 500.855469 C 386.382812 500.28125 387.566406 498.347656 388.445312 496.828125 C 388.96875 495.921875 389.324219 495.113281 389.371094 494.960938 C 389.777344 493.671875 389.601562 493.058594 389.261719 492.332031 " fill-opacity="1" fill-rule="nonzero"/><path fill="#447d30" d="M 386.574219 515.089844 C 386.273438 514.257812 385.761719 513.523438 385.453125 512.699219 C 385.109375 511.777344 385.226562 510.804688 385.4375 509.867188 C 385.449219 509.800781 385.355469 509.761719 385.335938 509.832031 C 385.136719 510.527344 384.925781 511.210938 384.957031 511.917969 C 384.648438 511.121094 384.503906 510.269531 384.882812 509.484375 C 385.128906 508.980469 385.460938 508.527344 385.699219 508.019531 C 385.945312 507.496094 386.082031 506.933594 386.171875 506.363281 C 386.171875 506.347656 386.148438 506.339844 386.144531 506.355469 C 385.949219 507.039062 385.652344 507.699219 385.285156 508.308594 C 384.96875 508.828125 384.507812 509.25 384.328125 509.847656 C 384.183594 510.335938 384.03125 511.222656 384.539062 512.273438 C 385.199219 513.628906 386.589844 515.128906 386.574219 515.089844 " fill-opacity="1" fill-rule="nonzero"/><path fill="#447d30" d="M 385.503906 484.515625 C 385.324219 484.195312 385.152344 483.902344 385.070312 483.539062 C 385.039062 483.398438 385.011719 483.253906 384.988281 483.109375 C 384.992188 482.84375 384.96875 482.582031 384.925781 482.304688 C 384.6875 480.824219 383.128906 479.816406 383.160156 479.835938 C 383.628906 480.148438 383.972656 480.628906 384.195312 481.144531 C 384.199219 481.152344 384.203125 481.160156 384.207031 481.167969 C 384.269531 481.335938 384.324219 481.5 384.371094 481.667969 C 384.472656 482.078125 384.507812 482.5 384.546875 482.929688 C 384.539062 483.347656 384.480469 483.769531 384.550781 484.179688 C 384.722656 485.15625 385.679688 485.867188 385.816406 486.824219 C 385.828125 486.839844 385.835938 486.859375 385.839844 486.882812 C 385.84375 486.898438 385.84375 486.910156 385.847656 486.925781 C 385.847656 486.535156 385.75 486.148438 385.636719 485.777344 C 385.492188 485.308594 385.238281 484.917969 385.09375 484.464844 C 385.109375 484.484375 385.128906 484.507812 385.144531 484.527344 C 385.597656 485.035156 385.933594 485.546875 386.125 486.210938 C 386.128906 486.234375 386.164062 486.226562 386.160156 486.203125 C 386.023438 485.605469 385.800781 485.050781 385.503906 484.515625 " fill-opacity="1" fill-rule="nonzero"/><g clip-path="url(#998ebccb0f)"><path fill="#447d30" d="M 386.476562 523.082031 C 386.21875 523.5 385.496094 524.890625 385.085938 525.75 L 385.5625 525.75 C 385.726562 525.460938 385.886719 525.167969 386.042969 524.867188 C 386.265625 524.4375 387.765625 521.867188 388.070312 520.914062 C 388.371094 519.976562 388.492188 518.949219 388.28125 517.976562 C 388.054688 516.941406 387.542969 516 387.152344 515.023438 C 387.144531 515.011719 387.128906 515.019531 387.132812 515.03125 C 387.234375 516.027344 387.296875 517.015625 387.445312 518.007812 C 387.597656 519.011719 387.523438 519.9375 387.257812 520.914062 C 387.054688 521.664062 386.792969 522.378906 386.476562 523.082031 " fill-opacity="1" fill-rule="nonzero"/></g><path fill="#9ad757" d="M 394.050781 494.914062 C 393.929688 495.753906 393.597656 496.550781 393.203125 497.316406 C 393.097656 497.578125 392.992188 497.835938 392.882812 498.09375 C 392.460938 499.074219 391.953125 500.003906 391.339844 500.859375 C 390.753906 501.679688 390.0625 502.40625 389.460938 503.214844 C 389.113281 503.683594 388.757812 504.160156 388.523438 504.707031 C 388.285156 505.257812 388.085938 505.824219 387.988281 506.425781 C 387.789062 507.699219 387.902344 508.964844 388.257812 510.203125 C 388.378906 510.625 388.496094 511.140625 388.660156 511.554688 C 388.78125 511.328125 388.957031 511.023438 389.101562 510.8125 C 389.175781 510.675781 389.257812 510.542969 389.351562 510.414062 C 389.75 509.738281 390.226562 509.113281 390.640625 508.441406 C 390.632812 508.394531 390.621094 508.347656 390.613281 508.300781 C 390.613281 508.289062 390.609375 508.273438 390.609375 508.253906 C 390.605469 508.21875 390.601562 508.1875 390.601562 508.171875 C 390.585938 508.019531 390.582031 507.867188 390.574219 507.714844 C 390.566406 507.464844 390.5625 507.21875 390.574219 506.972656 C 390.578125 506.898438 390.585938 506.820312 390.59375 506.746094 C 390.59375 506.742188 390.59375 506.734375 390.59375 506.726562 C 390.601562 506.683594 390.613281 506.628906 390.617188 506.609375 C 390.628906 506.535156 390.644531 506.460938 390.664062 506.386719 C 390.71875 506.136719 390.804688 505.898438 390.878906 505.65625 C 390.890625 505.625 390.894531 505.609375 390.894531 505.605469 C 390.933594 505.503906 390.976562 505.402344 391.011719 505.300781 C 391.03125 505.242188 391.121094 505.019531 391.117188 505.023438 C 391.523438 504.089844 392.019531 503.203125 392.425781 502.265625 C 392.929688 501.121094 393.339844 499.910156 393.632812 498.683594 C 393.777344 498.078125 393.894531 497.460938 393.976562 496.839844 C 394.015625 496.546875 394 496.253906 394.015625 495.957031 C 394.03125 495.628906 394.0625 495.300781 394.078125 494.972656 C 394.078125 494.945312 394.066406 494.925781 394.050781 494.914062 " fill-opacity="1" fill-rule="nonzero"/><g clip-path="url(#b32d81decc)"><path fill="#9ad757" d="M 391.589844 516.195312 C 392.160156 517.09375 392.664062 518.039062 393.011719 519.0625 C 393.414062 520.222656 393.511719 521.425781 393.570312 522.664062 C 393.613281 523.535156 393.445312 524.707031 393.277344 525.75 L 394.023438 525.75 C 394.523438 523.953125 394.683594 521.8125 394.5625 520.109375 C 394.484375 518.96875 394.265625 517.828125 393.917969 516.746094 C 393.554688 515.621094 393.046875 514.554688 392.597656 513.464844 C 392.359375 512.875 392.097656 512.339844 391.824219 511.765625 C 391.542969 512.152344 391.226562 512.703125 390.894531 513.164062 C 390.808594 513.308594 390.71875 513.449219 390.628906 513.585938 C 390.511719 513.835938 390.394531 514.078125 390.269531 514.320312 C 390.425781 514.550781 390.585938 514.777344 390.753906 514.996094 C 391.101562 515.449219 391.261719 515.675781 391.589844 516.195312 " fill-opacity="1" fill-rule="nonzero"/></g><path fill="#86c75a" d="M 389.15625 506.628906 C 389.273438 505.660156 389.5 504.988281 389.886719 504.082031 C 389.90625 504.039062 388.875 505.761719 388.667969 506.722656 C 388.464844 507.675781 388.484375 508.691406 388.621094 509.652344 C 388.644531 509.832031 388.679688 510.007812 388.714844 510.183594 C 388.355469 509.007812 388.191406 507.777344 388.390625 506.5625 C 388.394531 506.550781 388.375 506.546875 388.371094 506.558594 C 387.871094 508.199219 388.0625 509.996094 388.648438 511.574219 C 388.773438 511.339844 388.953125 511.027344 389.101562 510.8125 C 389.175781 510.675781 389.257812 510.542969 389.351562 510.414062 C 389.425781 510.289062 389.5 510.167969 389.578125 510.046875 C 389.261719 509.125 389 507.933594 389.15625 506.628906 " fill-opacity="1" fill-rule="nonzero"/><g clip-path="url(#e4648ef1f2)"><path fill="#86c75a" d="M 393.4375 522.339844 C 393.542969 523.507812 393.390625 524.636719 393.132812 525.75 L 393.769531 525.75 C 393.976562 524.890625 394.148438 524.019531 394.214844 523.136719 C 394.324219 521.753906 394.089844 520.347656 393.703125 519.019531 C 393.089844 516.902344 391.980469 515.003906 390.96875 513.0625 C 390.941406 513.097656 390.917969 513.128906 390.894531 513.164062 C 390.808594 513.308594 390.71875 513.449219 390.628906 513.585938 C 390.484375 513.894531 390.335938 514.183594 390.179688 514.480469 C 390.6875 515.339844 391.238281 516.1875 391.796875 517 C 392.574219 518.710938 393.265625 520.46875 393.4375 522.339844 " fill-opacity="1" fill-rule="nonzero"/></g><path fill="#86c75a" d="M 394.023438 494.691406 C 393.917969 495.886719 393.359375 497.003906 392.769531 498.070312 C 392.503906 498.667969 392.203125 499.25 391.878906 499.8125 C 391.019531 501.304688 389.652344 502.472656 389 504.089844 C 388.980469 504.132812 389.050781 504.15625 389.074219 504.121094 C 389.523438 503.394531 390.09375 502.769531 390.671875 502.152344 C 390.449219 502.605469 390.234375 503.0625 390.019531 503.511719 C 390.003906 503.542969 390.042969 503.578125 390.066406 503.550781 C 390.585938 502.886719 391.125 502.214844 391.609375 501.511719 C 392.394531 500.539062 393.109375 499.515625 393.585938 498.34375 C 394.070312 497.152344 394.253906 495.925781 394.023438 494.691406 " fill-opacity="1" fill-rule="nonzero"/><path fill="#bae37c" d="M 389.503906 510.164062 C 389.59375 510.023438 389.683594 509.882812 389.777344 509.742188 C 389.675781 509.421875 389.582031 509.09375 389.496094 508.765625 C 389.242188 507.773438 389.191406 506.824219 389.433594 505.824219 C 389.65625 504.882812 390.054688 503.933594 390.589844 503.128906 C 390.609375 503.105469 390.566406 503.074219 390.546875 503.097656 C 389.945312 503.875 389.410156 504.65625 389.109375 505.605469 C 388.800781 506.566406 388.800781 507.578125 389.027344 508.558594 C 389.152344 509.105469 389.3125 509.640625 389.503906 510.164062 " fill-opacity="1" fill-rule="nonzero"/><path fill="#bae37c" d="M 391.066406 512.925781 C 391.015625 512.996094 390.964844 513.066406 390.914062 513.136719 C 391.183594 513.609375 391.464844 514.074219 391.753906 514.53125 C 391.78125 514.574219 391.847656 514.535156 391.824219 514.488281 C 391.566406 513.972656 391.3125 513.449219 391.066406 512.925781 " fill-opacity="1" fill-rule="nonzero"/><path fill="#bae37c" d="M 393.472656 499.398438 C 393.472656 499.40625 393.46875 499.414062 393.464844 499.425781 C 393.523438 499.105469 393.566406 498.78125 393.585938 498.449219 C 393.585938 498.4375 393.5625 498.433594 393.558594 498.449219 C 393.421875 499.339844 393.066406 500.160156 392.683594 500.96875 C 392.105469 501.878906 391.40625 502.714844 390.816406 503.605469 C 390.003906 504.84375 389.347656 506.394531 389.648438 507.902344 C 389.65625 507.953125 389.734375 507.941406 389.734375 507.890625 C 389.695312 506.191406 390.496094 504.785156 391.402344 503.417969 C 391.523438 503.234375 391.644531 503.050781 391.765625 502.867188 C 391.613281 503.179688 391.464844 503.492188 391.316406 503.804688 C 390.925781 504.628906 390.503906 505.4375 390.375 506.355469 C 390.265625 507.140625 390.3125 507.9375 390.46875 508.714844 C 390.507812 508.65625 390.542969 508.597656 390.582031 508.535156 C 390.515625 507.722656 390.496094 506.902344 390.730469 506.109375 C 391 505.203125 391.519531 504.34375 391.933594 503.492188 C 392.507812 502.3125 393.066406 501.132812 393.367188 499.871094 C 393.421875 499.71875 393.46875 499.566406 393.511719 499.410156 C 393.515625 499.386719 393.484375 499.375 393.472656 499.398438 " fill-opacity="1" fill-rule="nonzero"/><path fill="#bae37c" d="M 394.574219 520.335938 C 394.554688 519.863281 394.507812 519.386719 394.441406 518.910156 C 394.230469 517.554688 393.855469 516.226562 393.300781 514.972656 C 392.839844 513.925781 392.269531 512.941406 391.6875 511.964844 C 391.632812 512.0625 391.578125 512.15625 391.523438 512.25 C 391.597656 512.421875 391.675781 512.597656 391.753906 512.769531 C 392.027344 513.359375 392.320312 513.9375 392.601562 514.523438 C 392.191406 513.84375 391.753906 513.175781 391.375 512.476562 C 391.355469 512.511719 391.332031 512.542969 391.308594 512.578125 C 391.886719 513.839844 392.667969 515.007812 393.1875 516.300781 C 393.863281 517.980469 394.378906 519.765625 394.558594 521.570312 C 394.582031 521.160156 394.589844 520.75 394.574219 520.335938 " fill-opacity="1" fill-rule="nonzero"/><g clip-path="url(#4e36972637)"><path fill="#64ac4f" d="M 381.632812 511.835938 C 381.824219 512.144531 382.027344 512.417969 382.238281 512.710938 C 382.476562 513.042969 382.703125 513.34375 382.9375 513.6875 C 382.980469 513.53125 383.019531 513.394531 383.050781 513.238281 C 383.34375 511.90625 383.152344 510.605469 382.464844 509.433594 C 381.847656 508.378906 380.941406 507.511719 380.074219 506.671875 C 379.652344 506.257812 379.226562 505.847656 378.828125 505.414062 C 378.636719 505.203125 378.453125 504.984375 378.277344 504.761719 C 378.277344 504.761719 378.253906 504.730469 378.234375 504.707031 C 378.210938 504.671875 378.15625 504.601562 378.148438 504.589844 C 378.0625 504.46875 377.984375 504.34375 377.90625 504.214844 C 377.832031 504.089844 377.757812 503.960938 377.695312 503.828125 C 377.683594 503.808594 377.671875 503.785156 377.664062 503.761719 C 377.664062 503.769531 377.625 503.683594 377.613281 503.660156 C 377.613281 503.65625 377.429688 503.179688 377.527344 503.453125 C 377.507812 503.398438 377.488281 503.347656 377.472656 503.292969 C 377.410156 503.117188 377.367188 502.9375 377.328125 502.753906 C 377.324219 502.742188 377.308594 502.640625 377.304688 502.625 C 377.300781 502.582031 377.296875 502.535156 377.292969 502.488281 C 377.285156 502.335938 377.28125 502.183594 377.285156 502.03125 C 377.296875 501.636719 377.3125 501.527344 377.390625 501.175781 C 377.429688 500.996094 377.476562 500.820312 377.53125 500.644531 C 377.546875 500.585938 377.566406 500.527344 377.585938 500.472656 C 377.582031 500.480469 377.671875 500.242188 377.660156 500.257812 C 377.777344 499.976562 377.917969 499.695312 378.0625 499.425781 C 378.402344 498.796875 378.84375 498.253906 379.253906 497.675781 C 379.734375 496.996094 379.976562 496.257812 380.128906 495.488281 C 380.175781 494.886719 380.140625 494.28125 379.988281 493.6875 C 379.945312 493.828125 379.902344 493.96875 379.855469 494.109375 C 379.777344 494.390625 379.671875 494.664062 379.53125 494.917969 C 379.480469 495.027344 379.425781 495.136719 379.371094 495.246094 C 379.363281 495.261719 379.351562 495.277344 379.34375 495.292969 C 379.332031 495.3125 379.320312 495.335938 379.308594 495.355469 C 379.285156 495.398438 379.261719 495.441406 379.234375 495.484375 C 378.960938 495.941406 378.621094 496.351562 378.1875 496.6875 C 377.675781 497.082031 377.113281 497.414062 376.667969 497.890625 C 376.207031 498.386719 375.832031 498.929688 375.558594 499.546875 C 374.957031 500.90625 374.71875 502.429688 375.148438 503.882812 C 375.519531 505.125 376.394531 506.148438 377.363281 506.972656 C 378.273438 507.746094 379.269531 508.363281 380.089844 509.222656 C 380.742188 509.914062 381.308594 510.558594 381.425781 511.5 C 381.460938 511.566406 381.597656 511.78125 381.632812 511.835938 " fill-opacity="1" fill-rule="nonzero"/></g><g clip-path="url(#03aad0526e)"><path fill="#64ac4f" d="M 383.6875 522.824219 C 384.015625 523.402344 384.265625 524.015625 384.4375 524.664062 C 384.523438 524.988281 384.597656 525.320312 384.679688 525.648438 C 384.6875 525.683594 384.695312 525.71875 384.707031 525.75 L 386.179688 525.75 C 386.238281 525.410156 386.183594 525.027344 386.128906 524.691406 C 386.03125 524.101562 385.84375 523.523438 385.617188 522.972656 C 385.117188 521.753906 384.398438 520.703125 383.472656 519.777344 C 383.054688 519.359375 382.640625 518.949219 382.410156 518.394531 C 382.207031 517.910156 382.140625 517.378906 382.148438 516.859375 C 382.148438 516.761719 382.152344 516.710938 382.160156 516.617188 C 382.105469 516.550781 382.011719 516.453125 381.953125 516.390625 C 381.875 516.300781 381.808594 516.234375 381.738281 516.160156 C 381.699219 516.117188 381.65625 516.074219 381.613281 516.027344 C 381.59375 516.011719 381.566406 515.980469 381.546875 515.960938 C 381.457031 515.871094 381.367188 515.777344 381.277344 515.683594 C 381.203125 515.609375 381.128906 515.535156 381.058594 515.464844 C 380.988281 515.398438 380.925781 515.328125 380.859375 515.261719 C 380.804688 515.203125 380.746094 515.148438 380.695312 515.09375 C 380.628906 515.3125 380.578125 515.527344 380.539062 515.753906 C 380.316406 517.046875 380.417969 518.417969 381.078125 519.578125 C 381.449219 520.238281 382.007812 520.742188 382.523438 521.277344 C 382.976562 521.746094 383.363281 522.253906 383.6875 522.824219 " fill-opacity="1" fill-rule="nonzero"/></g><path fill="#64ac4f" d="M 377.621094 503.679688 C 377.636719 503.707031 377.648438 503.734375 377.664062 503.761719 C 377.660156 503.761719 377.648438 503.738281 377.621094 503.679688 " fill-opacity="1" fill-rule="nonzero"/><path fill="#509063" d="M 381.164062 511.015625 C 381.285156 511.269531 381.484375 511.59375 381.632812 511.835938 C 381.804688 512.109375 381.945312 512.324219 382.148438 512.578125 C 382.226562 511.648438 382.214844 510.792969 381.84375 509.914062 C 381.425781 508.914062 380.550781 508.300781 379.765625 507.613281 C 378.96875 506.917969 378.183594 506.183594 377.558594 505.324219 C 376.785156 504.253906 376.246094 503.027344 376.203125 501.6875 C 376.203125 501.613281 376.105469 501.617188 376.09375 501.6875 C 375.8125 503.828125 376.777344 505.882812 378.191406 507.433594 C 378.902344 508.214844 379.804688 508.800781 380.492188 509.59375 C 380.839844 509.992188 381.035156 510.46875 381.152344 510.972656 C 381.15625 510.984375 381.160156 511 381.164062 511.015625 " fill-opacity="1" fill-rule="nonzero"/><path fill="#509063" d="M 381.542969 515.957031 C 381.457031 515.871094 381.378906 515.785156 381.292969 515.703125 C 381.277344 515.984375 381.332031 516.257812 381.3125 516.535156 C 381.304688 516.636719 381.378906 516.648438 381.40625 516.558594 C 381.464844 516.359375 381.511719 516.179688 381.5625 515.976562 C 381.558594 515.972656 381.546875 515.960938 381.542969 515.957031 " fill-opacity="1" fill-rule="nonzero"/><g clip-path="url(#1b48704a50)"><path fill="#509063" d="M 383.171875 521.957031 C 383.234375 522.050781 383.296875 522.148438 383.359375 522.246094 C 383.824219 522.976562 384.253906 523.746094 384.511719 524.578125 C 384.632812 524.96875 384.695312 525.359375 384.734375 525.75 L 385.449219 525.75 C 385.429688 525.460938 385.375 525.167969 385.3125 524.882812 C 385.171875 524.269531 385.011719 523.699219 384.726562 523.136719 C 384.75 523.101562 384.691406 523.03125 384.667969 522.992188 C 384.503906 522.726562 384.332031 522.472656 384.148438 522.222656 C 383.730469 521.566406 383.257812 520.941406 382.804688 520.308594 C 382.285156 519.589844 381.496094 518.769531 381.539062 517.820312 C 381.542969 517.730469 381.480469 517.710938 381.457031 517.796875 C 381.363281 518.171875 381.300781 518.53125 381.382812 518.878906 C 380.859375 517.992188 380.617188 516.945312 380.757812 515.914062 C 380.761719 515.890625 380.730469 515.875 380.71875 515.898438 C 380.109375 517.15625 380.273438 518.53125 381.101562 519.648438 C 381.574219 520.285156 382.128906 520.863281 382.671875 521.441406 C 382.835938 521.617188 383.003906 521.789062 383.171875 521.957031 " fill-opacity="1" fill-rule="nonzero"/></g><path fill="#509063" d="M 379.941406 493.714844 C 379.859375 494.183594 379.703125 494.632812 379.460938 495.039062 C 379.453125 495.0625 379.445312 495.085938 379.433594 495.109375 C 379.433594 495.117188 379.433594 495.125 379.429688 495.136719 C 379.265625 495.496094 379.054688 495.828125 378.753906 496.132812 C 378.269531 496.621094 377.785156 497.125 377.25 497.554688 C 377.230469 497.570312 377.253906 497.597656 377.273438 497.585938 C 377.898438 497.21875 378.5625 496.980469 379.109375 496.515625 C 378.941406 496.941406 378.703125 497.332031 378.3125 497.59375 C 378.28125 497.617188 378.308594 497.667969 378.34375 497.648438 C 378.957031 497.324219 379.484375 496.839844 379.753906 496.191406 C 380.066406 495.445312 380.179688 494.496094 379.941406 493.714844 " fill-opacity="1" fill-rule="nonzero"/><path fill="#72be5b" d="M 379.285156 497.429688 C 379.285156 497.425781 379.28125 497.421875 379.28125 497.425781 C 378.757812 498 377.960938 498.316406 377.320312 498.734375 C 377.179688 498.824219 377.042969 498.921875 376.90625 499.019531 C 377.046875 498.886719 377.1875 498.757812 377.324219 498.621094 C 377.664062 498.273438 377.953125 497.882812 378.257812 497.5 C 378.269531 497.488281 378.25 497.46875 378.238281 497.480469 C 377.667969 497.984375 376.910156 498.5 376.273438 499.09375 C 376.300781 499.042969 376.328125 498.996094 376.355469 498.949219 C 376.511719 498.667969 376.648438 498.324219 376.859375 498.085938 C 376.867188 498.074219 376.855469 498.054688 376.84375 498.066406 C 375.503906 499.179688 375.082031 500.871094 375.078125 502.214844 C 375.078125 502.5625 375.109375 502.886719 375.15625 503.171875 C 375.15625 503.242188 375.15625 503.3125 375.160156 503.382812 C 375.25 504.59375 376.191406 505.574219 377.035156 506.359375 C 377.054688 506.378906 377.082031 506.351562 377.0625 506.332031 C 376.371094 505.5 375.859375 504.5625 375.703125 503.476562 C 375.539062 502.375 375.824219 501.34375 376.617188 500.550781 C 376.621094 500.542969 376.617188 500.535156 376.609375 500.539062 C 376.117188 500.890625 375.695312 501.390625 375.4375 501.960938 C 375.546875 501.273438 375.875 500.675781 376.34375 500.164062 C 377.257812 499.167969 378.570312 498.621094 379.285156 497.429688 " fill-opacity="1" fill-rule="nonzero"/><path fill="#72be5b" d="M 379.792969 506.578125 C 379.089844 505.988281 378.371094 505.378906 377.769531 504.679688 C 377.125 503.933594 376.683594 502.976562 376.496094 502.007812 C 376.496094 501.992188 376.46875 501.996094 376.46875 502.011719 C 376.554688 503.894531 377.464844 505.398438 378.847656 506.625 C 380.273438 507.886719 382.066406 509.011719 382.566406 510.988281 C 382.574219 511.015625 382.621094 511.011719 382.621094 510.980469 C 382.515625 509.121094 381.132812 507.707031 379.792969 506.578125 " fill-opacity="1" fill-rule="nonzero"/><g clip-path="url(#b2ff91a206)"><path fill="#72be5b" d="M 383.765625 521.605469 C 385.144531 523.355469 385.167969 524.59375 385.335938 525.308594 C 385.335938 525.320312 385.355469 525.496094 385.378906 525.75 L 385.730469 525.75 C 385.75 525.234375 385.707031 524.714844 385.605469 524.214844 C 385.636719 524.214844 385.496094 523.71875 385.410156 523.503906 C 385.402344 523.476562 385.394531 523.453125 385.382812 523.425781 C 385.164062 522.820312 384.863281 522.242188 384.464844 521.742188 C 384.457031 521.734375 384.449219 521.726562 384.445312 521.71875 C 384.101562 521.265625 383.714844 520.847656 383.34375 520.417969 C 382.34375 519.246094 381.417969 517.867188 381.816406 516.238281 C 381.808594 516.230469 381.792969 516.214844 381.785156 516.207031 C 381.542969 516.90625 381.425781 517.585938 381.589844 518.316406 C 381.75 519.046875 382.136719 519.679688 382.582031 520.261719 C 382.949219 520.738281 383.359375 521.167969 383.765625 521.605469 " fill-opacity="1" fill-rule="nonzero"/></g><g clip-path="url(#baedd1c9e0)"><path fill="#9ad757" d="M 397.515625 522.105469 C 397.390625 523.261719 396.96875 524.359375 396.550781 525.429688 C 396.507812 525.539062 396.464844 525.644531 396.417969 525.75 L 397.285156 525.75 C 397.746094 525 398.113281 524.183594 398.382812 523.339844 C 398.933594 521.613281 398.984375 519.71875 398.613281 517.949219 C 398.414062 516.980469 398.03125 516.078125 397.613281 515.1875 C 397.550781 515.054688 397.488281 514.925781 397.425781 514.792969 C 397.421875 514.792969 397.417969 514.796875 397.417969 514.800781 C 397.386719 514.824219 397.351562 514.851562 397.320312 514.875 C 397.3125 514.878906 397.308594 514.882812 397.300781 514.882812 C 397.273438 514.90625 397.242188 514.929688 397.214844 514.953125 C 396.839844 515.273438 396.441406 515.578125 396.027344 515.851562 C 396.097656 516.035156 396.171875 516.21875 396.242188 516.402344 C 396.972656 518.214844 397.730469 520.109375 397.515625 522.105469 " fill-opacity="1" fill-rule="nonzero"/></g><g clip-path="url(#20a5f1aa05)"><path fill="#9ad757" d="M 401.257812 500.847656 C 401.316406 501.90625 401.21875 502.996094 400.847656 503.96875 C 400.082031 504.949219 398.742188 505.53125 397.667969 506.078125 C 396.863281 506.492188 396.082031 506.96875 395.53125 507.703125 C 394.941406 508.488281 394.714844 509.457031 394.726562 510.433594 C 394.738281 511.144531 394.832031 511.847656 394.976562 512.535156 C 395.019531 512.511719 395.0625 512.488281 395.105469 512.460938 C 395.503906 512.175781 395.878906 511.867188 396.21875 511.507812 C 396.277344 511.4375 396.332031 511.363281 396.390625 511.289062 C 396.40625 511.265625 396.425781 511.25 396.445312 511.238281 C 396.46875 510.769531 396.558594 510.304688 396.710938 509.863281 C 396.929688 509.226562 397.28125 508.691406 397.746094 508.246094 C 398.035156 508.089844 398.320312 507.9375 398.605469 507.78125 C 399.527344 507.28125 400.386719 506.6875 400.980469 505.804688 C 401.273438 505.367188 401.484375 504.910156 401.628906 504.441406 C 401.65625 504.273438 401.679688 504.105469 401.699219 503.933594 C 401.707031 502.890625 401.558594 501.847656 401.257812 500.847656 " fill-opacity="1" fill-rule="nonzero"/></g><path fill="#6fc953" d="M 396.792969 507.222656 C 395.660156 507.859375 395.003906 509.09375 394.824219 510.359375 C 394.726562 511.058594 394.757812 511.828125 394.910156 512.578125 C 394.972656 512.539062 395.035156 512.503906 395.09375 512.46875 C 395.296875 512.324219 395.492188 512.171875 395.679688 512.015625 C 395.628906 511.234375 395.699219 510.449219 395.933594 509.671875 C 395.945312 509.636719 395.898438 509.621094 395.878906 509.648438 C 395.488281 510.269531 395.320312 510.972656 395.292969 511.695312 C 395.25 511.308594 395.234375 510.921875 395.257812 510.53125 C 395.339844 509.277344 395.855469 508.070312 396.816406 507.253906 C 396.835938 507.238281 396.8125 507.210938 396.792969 507.222656 " fill-opacity="1" fill-rule="nonzero"/><g clip-path="url(#a5efaa4d44)"><path fill="#6fc953" d="M 397.390625 522.371094 C 397.328125 523 397.179688 523.609375 397 524.214844 C 396.84375 524.746094 396.683594 525.257812 396.441406 525.75 L 396.511719 525.75 C 396.824219 525.320312 397.148438 524.851562 397.355469 524.394531 C 397.597656 523.859375 397.839844 523.277344 397.960938 522.699219 C 398.214844 521.464844 398.222656 520.199219 397.929688 518.972656 C 397.707031 518.035156 397.328125 517.15625 396.910156 516.292969 C 396.8125 516.011719 396.703125 515.730469 396.597656 515.449219 C 396.410156 515.585938 396.222656 515.722656 396.03125 515.847656 C 396.421875 516.808594 396.808594 517.757812 397.082031 518.761719 C 397.398438 519.933594 397.515625 521.160156 397.390625 522.371094 " fill-opacity="1" fill-rule="nonzero"/></g><path fill="#6fc953" d="M 397.785156 505.972656 C 397.777344 505.976562 397.785156 505.988281 397.792969 505.988281 C 398.339844 505.847656 398.855469 505.621094 399.335938 505.320312 C 399.402344 505.277344 399.46875 505.234375 399.535156 505.191406 C 399.425781 505.292969 399.316406 505.390625 399.191406 505.484375 C 398.609375 505.914062 397.988281 506.285156 397.414062 506.726562 C 397.398438 506.738281 397.40625 506.773438 397.429688 506.761719 C 398.121094 506.46875 398.851562 506.15625 399.488281 505.75 C 399.496094 505.742188 399.507812 505.738281 399.515625 505.730469 C 398.890625 506.464844 398.136719 507.085938 397.269531 507.488281 C 397.261719 507.496094 397.269531 507.511719 397.277344 507.507812 C 398.867188 506.960938 400.195312 505.800781 400.761719 504.226562 C 400.796875 504.164062 400.828125 504.101562 400.863281 504.039062 C 400.59375 504.34375 400.277344 504.601562 399.929688 504.828125 C 399.511719 505.101562 398.0625 505.84375 397.785156 505.972656 " fill-opacity="1" fill-rule="nonzero"/><g clip-path="url(#91af535a0a)"><path fill="#b8e273" d="M 401.472656 502.300781 C 401.472656 501.792969 401.386719 501.316406 401.253906 500.804688 C 401.25 500.789062 401.226562 500.792969 401.230469 500.808594 C 401.292969 502.03125 401.042969 503.246094 400.757812 504.429688 C 400.589844 504.792969 400.386719 505.148438 400.140625 505.488281 C 399.496094 506.382812 398.542969 507.164062 397.507812 507.542969 C 397.484375 507.550781 397.492188 507.585938 397.515625 507.582031 C 398.730469 507.308594 399.777344 506.734375 400.546875 505.730469 C 401.269531 504.78125 401.617188 503.492188 401.472656 502.300781 " fill-opacity="1" fill-rule="nonzero"/></g><path fill="#b8e273" d="M 400.363281 506.519531 C 399.847656 506.964844 399.277344 507.320312 398.644531 507.566406 C 398.132812 507.765625 397.582031 507.898438 397.113281 508.199219 C 396.144531 508.820312 395.859375 510.054688 395.785156 511.136719 C 395.78125 511.152344 395.8125 511.15625 395.8125 511.140625 C 395.914062 510.519531 396.152344 509.914062 396.484375 509.382812 C 396.808594 508.867188 397.226562 508.550781 397.761719 508.296875 C 398.742188 507.832031 399.625 507.335938 400.386719 506.546875 C 400.402344 506.527344 400.378906 506.507812 400.363281 506.519531 " fill-opacity="1" fill-rule="nonzero"/><path fill="#b8e273" d="M 398.636719 519.34375 C 398.589844 518.570312 398.449219 517.808594 398.179688 517.082031 C 397.910156 516.347656 397.488281 515.699219 397.15625 515 C 397.148438 515.007812 397.140625 515.015625 397.132812 515.019531 C 397.398438 515.6875 397.703125 516.339844 397.914062 517.023438 C 398.070312 517.539062 398.183594 518.074219 398.25 518.613281 C 398.210938 518.476562 398.171875 518.34375 398.121094 518.207031 C 397.761719 517.203125 397.265625 516.253906 396.800781 515.289062 C 396.753906 515.328125 396.703125 515.367188 396.65625 515.402344 C 397.003906 516.285156 397.382812 517.160156 397.710938 518.058594 C 398.011719 518.886719 398.152344 519.734375 398.183594 520.617188 C 398.195312 520.984375 398.183594 521.34375 398.15625 521.703125 C 398.019531 522.457031 397.789062 523.1875 397.601562 523.933594 C 397.59375 523.960938 397.636719 523.980469 397.652344 523.953125 C 397.753906 523.789062 397.847656 523.621094 397.929688 523.445312 C 397.941406 523.445312 397.953125 523.441406 397.957031 523.425781 C 397.976562 523.371094 397.996094 523.316406 398.011719 523.261719 C 398.542969 522.054688 398.710938 520.628906 398.636719 519.34375 " fill-opacity="1" fill-rule="nonzero"/></svg>