<svg xmlns="http://www.w3.org/2000/svg" xmlns:xlink="http://www.w3.org/1999/xlink" width="1080" zoomAndPan="magnify" viewBox="0 0 810 809.999993" height="1080" preserveAspectRatio="xMidYMid meet" version="1.0"><path fill="#3456a5" d="M 400.339844 460.925781 L 359.386719 437.167969 C 360.53125 444.8125 359.027344 448.007812 357.34375 451.023438 C 352.367188 459.816406 334.324219 476.398438 363.214844 473.0625 C 378.96875 471.222656 400.230469 460.925781 400.339844 460.925781 Z M 400.339844 460.925781 " fill-opacity="1" fill-rule="evenodd"/><path fill="#4067b0" d="M 384.765625 457.292969 L 364.789062 472.835938 C 365.828125 472.691406 366.9375 472.476562 368.046875 472.261719 L 385.734375 458.515625 L 386.339844 458.046875 L 385.375 456.792969 Z M 354.015625 456 C 353.585938 456.578125 353.121094 457.1875 352.691406 457.796875 C 353.546875 457.652344 354.410156 457.507812 355.265625 457.332031 C 362.890625 455.894531 370.304688 453.957031 377.710938 451.621094 L 378.429688 451.371094 L 377.964844 449.898438 L 377.210938 450.113281 C 369.875 452.449219 362.570312 454.386719 354.980469 455.824219 Z M 347.214844 468.710938 C 347.183594 469.242188 347.269531 469.757812 347.464844 470.253906 C 351.152344 468.78125 354.800781 467.273438 358.453125 465.730469 C 366.617188 462.210938 374.597656 458.40625 382.511719 454.28125 L 383.191406 453.921875 L 382.476562 452.554688 L 381.796875 452.914062 C 373.921875 457.007812 365.972656 460.777344 357.847656 464.292969 C 354.300781 465.800781 350.757812 467.273438 347.214844 468.707031 Z M 347.214844 468.710938 " fill-opacity="1" fill-rule="evenodd"/><path fill="#3456a5" d="M 445.015625 450.367188 C 448.777344 459.019531 452.101562 469.03125 450.601562 478.328125 C 449.742188 483.785156 441.113281 484.035156 436.496094 478.222656 C 430.199219 470.25 431.269531 458.15625 436.566406 450.296875 C 439.824219 445.453125 442.867188 445.453125 445.015625 450.367188 Z M 445.015625 450.367188 " fill-opacity="1" fill-rule="evenodd"/><path fill="#4067b0" d="M 440.039062 453.238281 C 443.511719 462.5 445.695312 472.261719 447.558594 482.027344 C 448.058594 481.828125 448.523438 481.566406 448.953125 481.238281 C 447.09375 471.582031 444.875 461.925781 441.4375 452.703125 L 441.1875 452.019531 L 439.753906 452.558594 Z M 438.320312 480.050781 C 437.808594 479.636719 437.332031 479.179688 436.890625 478.6875 C 437.210938 470.539062 437.460938 462.429688 437.066406 454.246094 L 437.066406 453.492188 L 438.535156 453.457031 L 438.570312 454.171875 C 438.964844 462.859375 438.679688 471.4375 438.320312 480.054688 Z M 438.320312 480.050781 " fill-opacity="1" fill-rule="evenodd"/><path fill="#3456a5" d="M 357.773438 416.304688 L 360.886719 387.125 C 339.265625 385.832031 339.085938 372.910156 327.667969 368.316406 C 324.804688 367.167969 321.941406 369.5 321.046875 371.976562 C 319.542969 376.140625 321.832031 377.289062 317.324219 379.265625 C 306.261719 384.148438 315.890625 390.605469 315.53125 394.230469 C 315.101562 399.113281 306.152344 399.941406 314.78125 407.980469 C 316.246094 409.308594 316.210938 413.832031 315.175781 416.988281 C 312.308594 425.960938 321.296875 426.609375 327.917969 423.234375 C 335.4375 419.394531 347.214844 415.15625 356.054688 416.128906 C 356.628906 416.164062 357.203125 416.238281 357.773438 416.308594 Z M 357.773438 416.304688 " fill-opacity="1" fill-rule="evenodd"/><path fill="#4067b0" d="M 354.730469 407.941406 C 347.214844 410.308594 339.660156 412.609375 332 414.652344 C 326.269531 416.195312 320.503906 417.558594 314.742188 418.816406 C 314.636719 419.390625 314.636719 419.890625 314.636719 420.394531 C 320.578125 419.101562 326.523438 417.664062 332.394531 416.085938 C 340.054688 414.039062 347.644531 411.746094 355.195312 409.339844 L 355.914062 409.121094 L 355.449219 407.6875 Z M 318.214844 378.832031 C 317.929688 378.976562 317.644531 379.121094 317.320312 379.261719 C 316.890625 379.480469 316.496094 379.65625 316.105469 379.835938 C 321.078125 381.128906 326.023438 382.566406 330.886719 384.289062 C 338.367188 386.980469 345.566406 390.355469 352.652344 393.980469 L 353.300781 394.300781 L 353.980469 392.972656 L 353.335938 392.652344 C 346.171875 388.988281 338.945312 385.617188 331.390625 382.886719 C 327.058594 381.34375 322.652344 380.015625 318.214844 378.832031 Z M 315.28125 392.792969 C 315.460938 393.296875 315.601562 393.800781 315.53125 394.230469 L 315.53125 394.300781 C 328.742188 395.019531 341.734375 396.382812 354.839844 399.003906 L 355.554688 399.183594 L 355.839844 397.710938 L 355.125 397.566406 C 341.84375 394.875 328.667969 393.476562 315.28125 392.792969 Z M 313.132812 406.253906 C 313.53125 406.738281 313.960938 407.191406 314.421875 407.617188 C 327.703125 406.039062 341.089844 405.105469 354.300781 403.023438 L 355.015625 402.878906 L 354.800781 401.410156 L 354.050781 401.515625 C 340.484375 403.671875 326.773438 404.605469 313.132812 406.253906 Z M 313.132812 406.253906 " fill-opacity="1" fill-rule="evenodd"/><path fill="#4067b0" d="M 423.5 349.433594 C 417.738281 344.410156 389.457031 321.148438 400.230469 344.085938 C 383.40625 335.183594 357.273438 322.007812 368.121094 354.101562 C 369.335938 357.691406 370.804688 361.566406 372.023438 365.300781 C 373.347656 369.320312 369.589844 371.1875 366.511719 372.371094 C 343.386719 381.238281 346.320312 422.910156 357.992188 441.214844 C 366.976562 455.285156 382.515625 462.789062 396.546875 464.691406 C 417.953125 467.597656 440.148438 458.015625 457.40625 442.035156 C 466.5 433.636719 469.074219 428.613281 474.015625 425.667969 C 487.796875 417.558594 492.703125 425.527344 497.570312 421.792969 C 498.96875 420.714844 498.71875 417.808594 496.675781 414.609375 C 502.1875 412.742188 504.15625 405.671875 496.640625 404.882812 C 495.640625 404.8125 494.601562 404.59375 493.597656 404.34375 C 485.542969 402.296875 472.40625 398.710938 467.929688 391.496094 C 453.253906 367.875 442.550781 352.335938 430.128906 345.730469 C 422.324219 341.601562 422.429688 342.75 423.503906 349.425781 Z M 423.5 349.433594 " fill-opacity="1" fill-rule="evenodd"/><path fill="#3456a5" d="M 443.976562 452.484375 L 443.871094 452.34375 C 437.929688 444.554688 432.917969 437.125 430.839844 427.320312 C 428.40625 415.871094 432.273438 408.011719 438.398438 398.820312 C 441.476562 394.191406 444.664062 389.703125 447.3125 384.824219 C 450.097656 379.730469 452.070312 374.523438 453.144531 368.890625 C 445.339844 357.90625 438.25 350.1875 430.519531 345.953125 L 431.125 348 C 433.558594 356.324219 429.660156 371.796875 425.617188 379.261719 C 420.5 388.628906 415.628906 399.46875 414.195312 410.167969 C 413.230469 417.238281 413.835938 423.84375 416.449219 430.484375 C 418.492188 435.722656 421.5 440.246094 424.289062 445.09375 C 426.902344 449.648438 428.980469 454.101562 429.515625 459.449219 L 429.550781 460.023438 C 434.605469 457.980469 439.414062 455.46875 443.980469 452.484375 Z M 443.976562 452.484375 " fill-opacity="1" fill-rule="evenodd"/><path fill="#fcb616" d="M 431.449219 459.265625 C 435.210938 457.609375 438.835938 455.695312 442.332031 453.523438 C 436.101562 445.375 431.054688 437.839844 428.941406 427.714844 C 423.609375 402.558594 447.628906 393.261719 451.570312 366.664062 C 445.199219 357.976562 439.253906 351.554688 432.992188 347.425781 C 435.890625 357.332031 430.773438 373.808594 427.300781 380.195312 C 400.015625 430.378906 429.085938 435.902344 431.449219 459.265625 Z M 431.449219 459.265625 " fill-opacity="1" fill-rule="evenodd"/><path fill="#3456a5" d="M 360.316406 444.515625 L 360.28125 441.71875 C 360.136719 430.519531 360.671875 419.390625 366.867188 409.664062 C 370.734375 403.632812 375.246094 396.203125 375.960938 388.882812 C 376.605469 382.347656 374.207031 375.890625 371.988281 369.859375 L 371.699219 369 C 370.625 370.648438 368.441406 371.65625 366.507812 372.375 C 362.285156 374.023438 358.917969 376.753906 356.304688 380.234375 C 358.992188 388.777344 357.09375 397.140625 352.832031 404.929688 C 351.507812 407.332031 350.363281 410.132812 349.398438 412.902344 C 350.292969 423.667969 353.515625 434.148438 357.988281 441.21875 C 358.703125 442.367188 359.492188 443.445312 360.316406 444.523438 Z M 360.316406 444.515625 " fill-opacity="1" fill-rule="evenodd"/><path fill="#fcb616" d="M 357.773438 378.4375 C 361.03125 387.554688 359.492188 396.816406 354.515625 405.859375 C 353.046875 408.550781 351.257812 412.964844 349.933594 417.597656 C 351.257812 426.644531 354.15625 435.1875 357.988281 441.214844 C 358.09375 441.402344 358.214844 441.582031 358.347656 441.753906 C 358.167969 430.195312 358.777344 418.746094 365.257812 408.625 C 376.496094 391.035156 375.78125 385.761719 370.195312 370.539062 C 369.085938 371.328125 367.761719 371.90625 366.507812 372.371094 C 363.117188 373.699219 360.203125 375.71875 357.769531 378.4375 Z M 357.773438 378.4375 " fill-opacity="1" fill-rule="evenodd"/><path fill="#3456a5" d="M 398.550781 345.054688 C 404.382812 355.035156 403.703125 367.8125 400.195312 378.472656 C 399.265625 381.234375 397.976562 384 396.722656 386.621094 C 395.148438 389.886719 393.464844 393.117188 391.855469 396.382812 C 388.238281 403.707031 384.515625 412.214844 383.226562 420.324219 C 382.402344 425.636719 382.652344 430.339844 384.335938 435.4375 C 385.695312 439.597656 387.773438 443.546875 389.3125 447.675781 C 391.316406 453.058594 392.285156 458.265625 392.460938 464.007812 C 393.859375 464.292969 395.214844 464.507812 396.542969 464.6875 C 398.84375 465.015625 401.160156 465.183594 403.488281 465.191406 C 403.523438 463.972656 403.523438 462.75 403.523438 461.53125 C 403.5 455.496094 402.726562 449.5625 401.195312 443.726562 C 400.121094 439.5625 398.652344 435.4375 397.722656 431.273438 C 396.828125 427.324219 396.648438 423.804688 397.507812 419.820312 C 398.761719 414.222656 401.875 408.621094 404.988281 403.847656 C 407.3125 400.296875 409.746094 396.777344 412.148438 393.257812 C 414.082031 390.460938 416.125 387.515625 417.699219 384.5 C 423.785156 372.90625 421.242188 356.824219 417.414062 344.402344 C 407.53125 336.648438 391.746094 325.988281 400.230469 344.078125 C 399.335938 343.578125 398.402344 343.109375 397.472656 342.609375 C 397.832031 343.46875 398.15625 344.222656 398.476562 344.90625 Z M 398.550781 345.054688 " fill-opacity="1" fill-rule="evenodd"/><path fill="#fcb616" d="M 414.726562 342.328125 C 404.957031 335.003906 392.496094 327.574219 400.230469 344.085938 C 406.207031 354.316406 405.851562 367.527344 402.019531 379.082031 C 400.371094 384.035156 396.972656 390.390625 393.605469 397.246094 C 373.523438 437.738281 393.570312 434.574219 394.429688 464.367188 C 395.148438 464.511719 395.863281 464.617188 396.542969 464.691406 C 398.191406 464.933594 399.851562 465.089844 401.519531 465.15625 C 401.554688 463.972656 401.589844 462.75 401.589844 461.566406 C 401.484375 433.210938 385.730469 429.871094 403.378906 402.808594 C 408.140625 395.484375 413.582031 388.164062 415.980469 383.605469 C 422.277344 371.617188 418.734375 354.242188 414.726562 342.324219 Z M 414.726562 342.328125 " fill-opacity="1" fill-rule="evenodd"/><path fill="#3456a5" d="M 432.199219 458.515625 C 430.589844 467.777344 427.871094 478.007812 421.492188 484.96875 C 417.804688 489.027344 410.433594 484.46875 409.789062 477.039062 C 408.855469 466.953125 416.445312 457.441406 425.179688 453.777344 C 430.550781 451.519531 433.089844 453.242188 432.195312 458.515625 Z M 432.199219 458.515625 " fill-opacity="1" fill-rule="evenodd"/><path fill="#4067b0" d="M 430.410156 452.988281 C 428.191406 459.300781 423.679688 469.070312 421.246094 474.128906 C 419.632812 477.46875 417.164062 482.023438 415.125 485.6875 C 415.570312 485.925781 416.035156 486.117188 416.519531 486.261719 C 418.523438 482.636719 420.996094 478.113281 422.605469 474.777344 C 425.003906 469.75 429.371094 460.3125 431.664062 453.921875 C 431.335938 453.488281 430.917969 453.175781 430.410156 452.988281 Z M 409.789062 477.039062 C 409.710938 476.382812 409.6875 475.722656 409.71875 475.0625 C 411.078125 473.554688 412.796875 471.367188 413.835938 470.253906 C 417.058594 466.808594 422.425781 458.445312 425.753906 453.527344 C 426.578125 453.238281 427.332031 453.023438 428.011719 452.917969 C 424.824219 457.441406 418.558594 467.382812 414.945312 471.296875 C 413.582031 472.730469 411.472656 475.28125 409.789062 477.039062 Z M 409.789062 477.039062 " fill-opacity="1" fill-rule="evenodd"/><path fill="#fcb616" d="M 389.8125 346.023438 C 384.015625 342.652344 377.214844 343.511719 374.671875 347.964844 C 372.09375 352.378906 374.742188 358.699219 380.574219 362.070312 C 386.375 365.445312 393.175781 364.582031 395.71875 360.167969 C 398.296875 355.71875 395.644531 349.398438 389.8125 346.027344 Z M 389.8125 346.023438 " fill-opacity="1" fill-rule="evenodd"/><path fill="#3456a5" d="M 387.703125 349.722656 C 384.554688 347.890625 380.898438 348.359375 379.503906 350.761719 C 378.144531 353.167969 379.574219 356.578125 382.691406 358.371094 C 385.839844 360.203125 389.492188 359.738281 390.886719 357.367188 C 392.246094 354.964844 390.851562 351.554688 387.703125 349.722656 Z M 387.703125 349.722656 " fill-opacity="1" fill-rule="evenodd"/><path fill="#ffffff" d="M 441.242188 398.066406 C 445.460938 404.84375 452.335938 408.175781 456.597656 405.507812 C 457.75 404.785156 458.59375 403.699219 459.128906 402.359375 C 460.5625 398.757812 459.746094 393.351562 456.667969 388.410156 C 455.304688 386.21875 453.664062 384.390625 451.921875 383.003906 C 448.277344 380.105469 444.195312 379.164062 441.3125 380.96875 C 437.050781 383.636719 437.019531 391.292969 441.242188 398.066406 Z M 441.242188 398.066406 " fill-opacity="1" fill-rule="nonzero"/><path fill="#d5ddec" d="M 441.242188 398.066406 C 445.460938 404.84375 452.335938 408.175781 456.597656 405.507812 C 457.75 404.785156 458.59375 403.699219 459.128906 402.359375 C 460.070312 399.984375 460.042969 396.824219 459.027344 393.53125 C 459.742188 396.3125 459.695312 398.949219 458.886719 400.976562 C 458.386719 402.230469 457.597656 403.25 456.511719 403.929688 C 452.519531 406.429688 446.070312 403.304688 442.105469 396.949219 C 438.144531 390.589844 438.179688 383.414062 442.171875 380.910156 C 443.042969 380.375 443.988281 380.089844 445.007812 380.054688 C 443.664062 379.996094 442.402344 380.285156 441.3125 380.96875 C 437.050781 383.636719 437.019531 391.292969 441.242188 398.066406 Z M 441.242188 398.066406 " fill-opacity="1" fill-rule="nonzero"/><path fill="#1e3564" d="M 445.867188 391.105469 C 445.980469 391.050781 446.101562 391.003906 446.222656 390.96875 C 447.527344 390.574219 448.890625 391.265625 449.273438 392.519531 C 449.652344 393.777344 448.90625 395.113281 447.601562 395.511719 C 447.5625 395.523438 447.523438 395.535156 447.480469 395.542969 C 447.648438 395.855469 447.828125 396.164062 448.023438 396.472656 C 451.050781 401.335938 455.894531 403.851562 459.121094 402.359375 C 460.558594 398.757812 459.742188 393.351562 456.664062 388.410156 C 455.300781 386.21875 453.65625 384.390625 451.917969 383.007812 C 450.507812 382.707031 449.175781 382.867188 448.070312 383.558594 C 445.96875 384.875 445.230469 387.804688 445.867188 391.105469 Z M 445.867188 391.105469 " fill-opacity="1" fill-rule="nonzero"/></svg>