<svg xmlns="http://www.w3.org/2000/svg" xmlns:xlink="http://www.w3.org/1999/xlink" width="1080" zoomAndPan="magnify" viewBox="0 0 810 809.999993" height="1080" preserveAspectRatio="xMidYMid meet" version="1.0"><defs><g/></defs><g fill="#bf0000" fill-opacity="1"><g transform="translate(384.07821, 410.768593)"><g><path d="M 0.96875 -9.34375 L 9.34375 -9.34375 L 9.34375 -8.765625 L 0.96875 -8.765625 Z M 0.96875 -9.34375 "/></g></g></g><g fill="#bf0000" fill-opacity="1"><g transform="translate(394.396611, 410.768593)"><g><path d="M 0.84375 0 C 0.789062 -0.21875 0.734375 -0.40625 0.671875 -0.5625 C 0.609375 -0.726562 0.578125 -0.914062 0.578125 -1.125 C 0.578125 -1.882812 0.757812 -2.585938 1.125 -3.234375 C 1.5 -3.878906 2 -4.476562 2.625 -5.03125 C 3.257812 -5.59375 3.96875 -6.125 4.75 -6.625 C 5.53125 -7.125 6.335938 -7.601562 7.171875 -8.0625 C 8.015625 -8.53125 8.820312 -8.984375 9.59375 -9.421875 C 10.375 -9.859375 11.078125 -10.300781 11.703125 -10.75 C 12.335938 -11.195312 12.835938 -11.65625 13.203125 -12.125 C 13.578125 -12.601562 13.765625 -13.101562 13.765625 -13.625 C 13.765625 -14.289062 13.546875 -14.882812 13.109375 -15.40625 C 12.671875 -15.9375 12.070312 -16.351562 11.3125 -16.65625 C 10.5625 -16.957031 9.695312 -17.109375 8.71875 -17.109375 C 7.175781 -17.109375 5.863281 -16.835938 4.78125 -16.296875 C 3.695312 -15.753906 2.832031 -15.023438 2.1875 -14.109375 L 0.578125 -16.171875 C 0.734375 -16.566406 1.019531 -16.96875 1.4375 -17.375 C 1.863281 -17.78125 2.378906 -18.15625 2.984375 -18.5 C 3.597656 -18.84375 4.265625 -19.117188 4.984375 -19.328125 C 5.710938 -19.546875 6.445312 -19.65625 7.1875 -19.65625 C 8.601562 -19.65625 9.828125 -19.398438 10.859375 -18.890625 C 11.890625 -18.378906 12.6875 -17.671875 13.25 -16.765625 C 13.8125 -15.859375 14.09375 -14.8125 14.09375 -13.625 C 14.09375 -12.539062 13.890625 -11.5625 13.484375 -10.6875 C 13.085938 -9.820312 12.554688 -9.035156 11.890625 -8.328125 C 11.234375 -7.617188 10.503906 -6.976562 9.703125 -6.40625 C 8.910156 -5.832031 8.113281 -5.300781 7.3125 -4.8125 C 6.519531 -4.332031 5.789062 -3.875 5.125 -3.4375 C 4.46875 -3 3.9375 -2.554688 3.53125 -2.109375 C 3.132812 -1.671875 2.9375 -1.210938 2.9375 -0.734375 C 2.9375 -0.578125 2.957031 -0.460938 3 -0.390625 C 3.050781 -0.328125 3.15625 -0.296875 3.3125 -0.296875 C 4.726562 -0.296875 6.09375 -0.4375 7.40625 -0.71875 C 8.726562 -1.007812 9.941406 -1.363281 11.046875 -1.78125 C 12.160156 -2.207031 13.113281 -2.613281 13.90625 -3 L 13.90625 0 Z M 0.84375 0 "/></g></g></g><g fill="#bf0000" fill-opacity="1"><g transform="translate(409.465373, 410.768593)"><g><path d="M 8.234375 0.1875 C 6.816406 0.1875 5.578125 -0.222656 4.515625 -1.046875 C 3.453125 -1.878906 2.628906 -3.035156 2.046875 -4.515625 C 1.460938 -6.003906 1.171875 -7.742188 1.171875 -9.734375 C 1.171875 -11.722656 1.460938 -13.457031 2.046875 -14.9375 C 2.628906 -16.425781 3.453125 -17.582031 4.515625 -18.40625 C 5.578125 -19.238281 6.816406 -19.65625 8.234375 -19.65625 C 9.648438 -19.65625 10.882812 -19.238281 11.9375 -18.40625 C 12.988281 -17.582031 13.804688 -16.425781 14.390625 -14.9375 C 14.984375 -13.457031 15.28125 -11.722656 15.28125 -9.734375 C 15.28125 -7.742188 14.984375 -6.003906 14.390625 -4.515625 C 13.804688 -3.035156 12.988281 -1.878906 11.9375 -1.046875 C 10.882812 -0.222656 9.648438 0.1875 8.234375 0.1875 Z M 4.046875 -9.75 C 4.046875 -7.820312 4.210938 -6.132812 4.546875 -4.6875 C 4.890625 -3.238281 5.375 -2.109375 6 -1.296875 C 6.632812 -0.492188 7.375 -0.09375 8.21875 -0.09375 C 9.070312 -0.09375 9.8125 -0.492188 10.4375 -1.296875 C 11.070312 -2.109375 11.554688 -3.238281 11.890625 -4.6875 C 12.234375 -6.132812 12.40625 -7.820312 12.40625 -9.75 C 12.40625 -11.6875 12.234375 -13.375 11.890625 -14.8125 C 11.554688 -16.257812 11.070312 -17.382812 10.4375 -18.1875 C 9.8125 -18.988281 9.070312 -19.390625 8.21875 -19.390625 C 7.375 -19.390625 6.632812 -18.988281 6 -18.1875 C 5.375 -17.382812 4.890625 -16.257812 4.546875 -14.8125 C 4.210938 -13.375 4.046875 -11.6875 4.046875 -9.75 Z M 4.046875 -9.75 "/></g></g></g></svg>