<svg xmlns="http://www.w3.org/2000/svg" xmlns:xlink="http://www.w3.org/1999/xlink" width="1080" zoomAndPan="magnify" viewBox="0 0 810 809.999993" height="1080" preserveAspectRatio="xMidYMid meet" version="1.0"><path fill="#000000" d="M 445.765625 370.738281 C 442.453125 373.183594 437.921875 375.023438 431.910156 375.941406 C 390.957031 382.46875 361.972656 366.757812 356.21875 354.359375 C 355.960938 341.808594 359.476562 332.269531 365.027344 325.585938 C 378.171875 309.871094 402.570312 310.484375 414.644531 327.21875 C 441.84375 322.269531 465.070312 356.503906 445.765625 370.738281 Z M 445.765625 370.738281 " fill-opacity="1" fill-rule="nonzero"/><path fill="#e04503" d="M 445.765625 370.738281 C 445.257812 371.09375 444.746094 371.449219 444.238281 371.757812 C 441.128906 373.695312 437.054688 375.125 431.960938 375.941406 C 391.007812 382.46875 362.023438 366.757812 356.269531 354.359375 C 356.21875 351.402344 356.371094 348.59375 356.675781 345.941406 C 357.746094 337.421875 360.851562 330.636719 365.078125 325.585938 C 378.730469 314.15625 399.71875 316.097656 410.667969 331.25 C 435.527344 326.707031 457.023438 354.972656 445.765625 370.738281 Z M 445.765625 370.738281 " fill-opacity="1" fill-rule="nonzero"/><path fill="#000000" d="M 444.238281 371.757812 C 441.128906 373.695312 437.054688 375.125 431.960938 375.941406 C 391.007812 382.46875 362.023438 366.757812 356.269531 354.359375 C 356.21875 351.402344 356.371094 348.59375 356.675781 345.941406 C 357.492188 344.71875 358.355469 343.59375 359.273438 342.523438 C 373.230469 331.09375 394.777344 333.035156 405.984375 348.1875 C 423.964844 344.972656 440.316406 358.1875 444.238281 371.757812 Z M 444.238281 371.757812 " fill-opacity="0.3" fill-rule="nonzero"/><path fill="#000000" d="M 395.898438 380.429688 L 395.796875 379.96875 C 402.519531 378.644531 414.285156 375.226562 425.390625 369.972656 C 434.304688 365.789062 445.511719 359.054688 448.363281 350.890625 L 448.820312 351.042969 C 443.523438 366.195312 410.261719 377.574219 395.898438 380.429688 Z M 395.898438 380.429688 " fill-opacity="1" fill-rule="nonzero"/><path fill="#000000" d="M 364.0625 359.410156 L 363.601562 359.308594 C 365.027344 352.011719 366.507812 344.511719 368.796875 337.320312 C 371.449219 329.15625 374.808594 322.625 379.089844 317.269531 L 379.445312 317.574219 C 375.164062 322.882812 371.855469 329.410156 369.207031 337.472656 C 366.914062 344.617188 365.4375 352.113281 364.0625 359.410156 Z M 364.0625 359.410156 " fill-opacity="1" fill-rule="nonzero"/><path fill="#000000" d="M 379.902344 363.492188 C 379.242188 355.636719 379.75 347.675781 381.378906 339.820312 C 383.011719 331.964844 385.710938 324.464844 389.429688 317.523438 L 389.835938 317.730469 C 386.167969 324.667969 383.46875 332.117188 381.839844 339.921875 C 380.207031 347.726562 379.75 355.636719 380.363281 363.441406 Z M 379.902344 363.492188 " fill-opacity="1" fill-rule="nonzero"/><path fill="#000000" d="M 389.582031 368.796875 L 389.632812 368.238281 C 391.007812 351.859375 394.011719 335.484375 398.496094 319.667969 L 398.953125 319.820312 C 394.523438 335.433594 391.566406 351.554688 390.140625 367.726562 L 390.5 367.421875 C 401.910156 357.625 406.085938 344.257812 410.363281 327.832031 L 410.824219 327.933594 C 406.542969 344.460938 402.316406 357.878906 390.804688 367.777344 Z M 389.582031 368.796875 " fill-opacity="1" fill-rule="nonzero"/><path fill="#000000" d="M 403.128906 375.429688 L 402.722656 375.175781 C 411.179688 361.398438 418.105469 346.65625 423.300781 331.402344 L 423.761719 331.554688 C 418.566406 346.859375 411.636719 361.605469 403.128906 375.429688 Z M 403.128906 375.429688 " fill-opacity="1" fill-rule="nonzero"/><path fill="#000000" d="M 409.550781 374.972656 L 409.242188 374.613281 C 422.84375 363.59375 433.132812 349.820312 437.515625 336.808594 L 437.972656 336.960938 C 435.628906 343.902344 431.757812 350.941406 426.410156 357.828125 C 421.722656 363.898438 415.867188 369.867188 409.550781 374.972656 Z M 409.550781 374.972656 " fill-opacity="1" fill-rule="nonzero"/><path fill="#000000" d="M 366.300781 499.148438 C 361.820312 500.371094 357.03125 497.617188 352.957031 492.109375 C 346.539062 483.484375 341.851562 468.128906 342.871094 450.679688 C 341.445312 441.039062 352.449219 442.925781 357.4375 444.203125 C 358.867188 444.558594 359.78125 444.917969 359.78125 444.917969 C 359.78125 444.917969 362.175781 449.507812 366.964844 454.914062 C 368.746094 456.957031 370.886719 459.097656 373.332031 461.140625 C 374.046875 461.75 374.808594 462.363281 375.574219 462.925781 C 386.167969 470.882812 377.816406 496.035156 366.300781 499.148438 Z M 366.300781 499.148438 " fill-opacity="1" fill-rule="nonzero"/><path fill="#e04503" d="M 361.105469 493.945312 C 358.40625 494.660156 355.65625 493.996094 352.957031 492.109375 C 349.238281 487.109375 346.082031 479.863281 344.296875 471.242188 C 343.023438 464.964844 342.414062 458.027344 342.871094 450.679688 C 341.445312 441.039062 352.449219 442.925781 357.4375 444.203125 C 359.476562 447.109375 362.6875 451.089844 367.015625 454.914062 C 368.085938 455.886719 369.207031 456.804688 370.429688 457.722656 C 371.652344 458.640625 372.617188 459.8125 373.382812 461.140625 C 374.351562 462.925781 374.960938 465.015625 375.164062 467.261719 C 376.183594 477.71875 369.460938 491.699219 361.105469 493.945312 Z M 361.105469 493.945312 " fill-opacity="1" fill-rule="nonzero"/><path fill="#000000" d="M 375.164062 467.261719 C 371.601562 472.773438 366.148438 477.210938 360.089844 478.433594 C 356.421875 479.148438 352.550781 478.484375 348.882812 476.597656 C 347.25 475.015625 345.773438 473.230469 344.347656 471.242188 C 343.074219 464.964844 342.464844 458.027344 342.921875 450.679688 C 341.496094 441.039062 352.5 442.925781 357.492188 444.203125 C 359.527344 447.109375 362.738281 451.089844 367.066406 454.914062 C 368.136719 455.886719 369.257812 456.804688 370.480469 457.722656 C 371.703125 458.640625 372.667969 459.8125 373.433594 461.140625 C 374.351562 462.925781 374.910156 465.015625 375.164062 467.261719 Z M 375.164062 467.261719 " fill-opacity="0.3" fill-rule="nonzero"/><path fill="#000000" d="M 452.082031 464.355469 C 440.722656 483.996094 417.445312 487.160156 400.839844 467.824219 C 398.648438 465.273438 396.609375 462.363281 394.675781 459.046875 C 383.519531 439.609375 418.871094 438.234375 435.171875 438.996094 C 441.640625 439.304688 447.652344 439.867188 451.777344 441.804688 C 458.042969 444.761719 459.875 450.9375 452.082031 464.355469 Z M 452.082031 464.355469 " fill-opacity="1" fill-rule="nonzero"/><path fill="#e04503" d="M 447.191406 459.457031 C 436.902344 477.261719 416.832031 481.546875 400.839844 467.824219 C 400.480469 467.363281 400.074219 466.957031 399.71875 466.496094 C 397.933594 464.304688 396.253906 461.804688 394.675781 459.046875 C 383.519531 439.609375 418.871094 438.234375 435.171875 439 C 438.125 439.152344 440.976562 439.355469 443.574219 439.660156 C 446.734375 440.070312 449.535156 440.734375 451.777344 441.804688 C 453.152344 445.527344 452.082031 451.089844 447.191406 459.457031 Z M 447.191406 459.457031 " fill-opacity="1" fill-rule="nonzero"/><path fill="#000000" d="M 443.625 439.710938 C 443.371094 443.078125 441.792969 447.46875 438.53125 453.078125 C 429.824219 468.128906 414.082031 473.535156 399.769531 466.496094 C 397.984375 464.304688 396.304688 461.804688 394.726562 459.046875 C 383.570312 439.609375 418.921875 438.234375 435.222656 439 C 438.125 439.152344 440.976562 439.355469 443.625 439.710938 Z M 443.625 439.710938 " fill-opacity="0.3" fill-rule="nonzero"/><path fill="#000000" d="M 453.96875 447.773438 C 434.96875 447.773438 415.917969 443.386719 398.800781 435.070312 L 399.003906 434.660156 C 416.324219 443.078125 435.628906 447.46875 454.882812 447.3125 L 454.882812 447.773438 C 454.578125 447.773438 454.273438 447.773438 453.96875 447.773438 Z M 453.96875 447.773438 " fill-opacity="1" fill-rule="nonzero"/><path fill="#000000" d="M 451.625 457.261719 C 432.777344 452.925781 414.386719 446.496094 396.96875 438.128906 L 397.171875 437.722656 C 414.539062 446.089844 432.929688 452.519531 451.726562 456.855469 Z M 451.625 457.261719 " fill-opacity="1" fill-rule="nonzero"/><path fill="#000000" d="M 446.835938 465.628906 C 429.566406 459.8125 412.859375 452.160156 397.171875 442.875 L 397.425781 442.46875 C 413.0625 451.753906 429.769531 459.40625 446.988281 465.171875 Z M 446.835938 465.628906 " fill-opacity="1" fill-rule="nonzero"/><path fill="#000000" d="M 437.515625 472.617188 C 421.46875 464.25 405.675781 455.019531 390.550781 445.121094 L 390.804688 444.710938 C 405.933594 454.609375 421.722656 463.84375 437.769531 472.210938 Z M 437.515625 472.617188 " fill-opacity="1" fill-rule="nonzero"/><path fill="#000000" d="M 421.925781 477.464844 C 411.585938 468.484375 400.738281 459.8125 389.785156 451.652344 L 390.039062 451.292969 C 401.042969 459.457031 411.890625 468.128906 422.234375 477.109375 Z M 421.925781 477.464844 " fill-opacity="1" fill-rule="nonzero"/><path fill="#000000" d="M 374.808594 484.25 C 372.722656 475.425781 371.242188 466.34375 370.480469 457.261719 L 370.9375 457.210938 C 371.703125 466.242188 373.179688 475.324219 375.269531 484.148438 Z M 374.808594 484.25 " fill-opacity="1" fill-rule="nonzero"/><path fill="#000000" d="M 360.648438 496.75 C 353.671875 485.527344 349.289062 472.667969 347.964844 459.507812 L 348.421875 459.457031 C 349.746094 472.515625 354.128906 485.320312 361.054688 496.496094 Z M 360.648438 496.75 " fill-opacity="1" fill-rule="nonzero"/><path fill="#000000" d="M 366.351562 494.964844 L 365.84375 493.332031 C 362.6875 483.691406 358.765625 471.648438 357.695312 461.855469 L 358.152344 461.804688 C 359.171875 471.546875 363.09375 483.535156 366.25 493.179688 L 366.761719 494.8125 Z M 366.351562 494.964844 " fill-opacity="1" fill-rule="nonzero"/><path fill="#000000" d="M 373.078125 488.84375 C 368.238281 481.191406 365.027344 472.414062 363.859375 463.433594 L 364.316406 463.382812 C 365.488281 472.3125 368.644531 480.984375 373.433594 488.585938 Z M 373.078125 488.84375 " fill-opacity="1" fill-rule="nonzero"/><path fill="#e04503" d="M 534.398438 403.4375 C 533.632812 432.621094 523.34375 439.304688 510.609375 437.773438 C 495.226562 435.9375 476.226562 422.058594 466.140625 421.601562 C 464.867188 421.550781 463.746094 421.703125 462.777344 422.109375 C 462.167969 422.367188 461.609375 422.773438 461.097656 423.285156 C 457.429688 427.265625 450.707031 434.050781 441.589844 441.242188 C 440.0625 442.417969 438.53125 443.640625 436.902344 444.8125 C 429.617188 450.171875 421.113281 455.527344 411.6875 459.8125 C 410.160156 460.527344 408.582031 461.191406 406.949219 461.855469 C 404.710938 462.773438 402.367188 463.640625 400.023438 464.40625 C 394.726562 466.191406 389.171875 467.515625 383.46875 468.382812 C 381.941406 468.589844 380.464844 468.792969 378.933594 468.945312 C 378.527344 468.996094 378.070312 468.996094 377.660156 469.046875 C 370.226562 469.609375 362.53125 469.199219 354.6875 467.566406 C 352.90625 467.210938 351.121094 466.800781 349.441406 466.394531 C 348.21875 466.089844 346.996094 465.78125 345.773438 465.476562 C 338.746094 463.589844 332.582031 461.394531 327.132812 459.046875 C 326.0625 458.589844 324.992188 458.128906 323.972656 457.621094 C 308.183594 450.222656 299.472656 441.703125 295.089844 436.292969 C 292.390625 432.976562 291.371094 430.785156 291.371094 430.785156 C 291.371094 430.785156 291.320312 430.734375 291.269531 430.683594 C 289.742188 429.558594 274.664062 417.46875 289.84375 403.4375 C 297.636719 385.835938 307.671875 373.441406 318.878906 365.074219 C 319.082031 364.921875 319.285156 364.765625 319.492188 364.613281 C 324.789062 360.738281 330.390625 357.777344 336.097656 355.53125 C 337.0625 355.175781 338.03125 354.820312 339 354.460938 C 353.925781 349.359375 369.511719 349.257812 383.722656 352.0625 C 384.742188 352.269531 385.8125 352.472656 386.832031 352.726562 C 388.257812 353.035156 389.683594 353.390625 391.109375 353.796875 C 393.300781 354.410156 395.4375 355.074219 397.527344 355.789062 C 400.328125 356.757812 402.925781 357.726562 405.472656 358.746094 C 406.390625 359.105469 407.308594 359.511719 408.171875 359.871094 C 409.550781 360.480469 410.925781 361.09375 412.25 361.707031 C 420.703125 365.632812 427.632812 369.816406 433.695312 373.441406 C 435.425781 374.511719 437.105469 375.480469 438.738281 376.449219 C 445.5625 380.429688 451.367188 383.390625 457.429688 384 C 458.703125 384.152344 460.027344 384.152344 461.300781 384.050781 C 465.632812 383.746094 470.214844 382.113281 475.359375 378.746094 C 484.632812 372.726562 495.277344 367.472656 504.957031 365.890625 C 521.511719 363.082031 535.265625 370.839844 534.398438 403.4375 Z M 534.398438 403.4375 " fill-opacity="1" fill-rule="nonzero"/><path fill="#000000" d="M 409.753906 420.683594 C 407.511719 437.007812 403.996094 449.355469 400.074219 464.457031 C 394.777344 466.242188 389.226562 467.566406 383.519531 468.433594 C 381.992188 468.640625 380.515625 468.84375 378.984375 468.996094 C 378.578125 469.046875 378.121094 469.046875 377.710938 469.097656 C 383.265625 451.292969 388.308594 433.285156 390.445312 414.765625 C 391.261719 407.621094 391.617188 400.429688 391.363281 393.234375 C 390.957031 380.582031 388.410156 368.59375 384.234375 356.707031 C 383.570312 354.820312 383.46875 353.289062 383.722656 352.0625 C 384.742188 352.269531 385.8125 352.472656 386.832031 352.726562 C 388.257812 353.035156 389.683594 353.390625 391.109375 353.796875 C 393.300781 354.410156 395.4375 355.074219 397.527344 355.789062 C 400.328125 356.757812 402.925781 357.726562 405.472656 358.746094 C 405.320312 360.175781 405.21875 361.757812 405.625 363.390625 C 409.601562 380.683594 412.199219 403.082031 409.753906 420.683594 Z M 409.753906 420.683594 " fill-opacity="1" fill-rule="nonzero"/><path fill="#000000" d="M 412.503906 457.261719 C 412.25 458.128906 411.992188 458.996094 411.6875 459.863281 C 410.160156 460.578125 408.582031 461.242188 406.949219 461.90625 C 399.566406 464.914062 391.71875 467.210938 383.46875 468.433594 C 388.816406 456.039062 393.453125 443.234375 395.847656 429.558594 C 398.035156 416.90625 398.242188 403.796875 397.273438 390.886719 C 396.304688 378.285156 394.214844 365.789062 391.007812 353.746094 C 393.199219 354.359375 395.335938 355.023438 397.425781 355.738281 C 401.246094 357.011719 404.761719 358.390625 408.070312 359.820312 C 409.445312 360.429688 410.824219 361.042969 412.148438 361.65625 C 414.386719 375.125 415.355469 389.050781 416.070312 402.722656 C 417.035156 421.089844 417.597656 439.96875 412.503906 457.261719 Z M 412.503906 457.261719 " fill-opacity="1" fill-rule="nonzero"/><path fill="#000000" d="M 466.140625 421.652344 C 464.867188 421.601562 463.746094 421.753906 462.777344 422.164062 C 462.167969 422.417969 461.609375 422.824219 461.097656 423.335938 C 457.429688 427.316406 450.707031 434.101562 441.589844 441.292969 C 440.0625 442.46875 438.53125 443.691406 436.902344 444.863281 C 444.1875 419.917969 447.292969 393.847656 433.695312 373.390625 C 435.425781 374.460938 437.105469 375.429688 438.738281 376.398438 C 445.5625 380.378906 451.367188 383.335938 457.429688 383.949219 C 458.703125 384.101562 460.027344 384.101562 461.300781 384 C 469.757812 395.683594 468.078125 412.164062 466.140625 421.652344 Z M 466.140625 421.652344 " fill-opacity="1" fill-rule="nonzero"/><path fill="#000000" d="M 455.597656 389.96875 C 451.878906 389.96875 448.3125 389.511719 444.898438 388.644531 L 445 388.183594 C 452.335938 390.070312 459.875 389.96875 468.6875 387.828125 C 476.480469 385.941406 484.378906 382.675781 492.019531 379.511719 C 497.46875 377.214844 503.171875 374.867188 508.828125 373.03125 L 508.980469 373.492188 C 503.324219 375.378906 497.671875 377.726562 492.171875 379.96875 C 484.53125 383.132812 476.582031 386.449219 468.738281 388.335938 C 464.15625 389.410156 459.773438 389.96875 455.597656 389.96875 Z M 455.597656 389.96875 " fill-opacity="1" fill-rule="nonzero"/><path fill="#000000" d="M 511.222656 424.558594 C 506.535156 424.558594 501.746094 423.589844 497.164062 422.570312 C 485.140625 419.867188 473.171875 416.5 461.503906 412.570312 L 459.925781 412.0625 L 461.609375 412.164062 C 473.78125 412.722656 483.5625 411.5 493.902344 410.222656 C 501.898438 409.253906 510.203125 408.234375 519.878906 408.03125 L 519.878906 408.488281 C 510.253906 408.640625 501.949219 409.664062 493.953125 410.683594 C 484.070312 411.90625 474.699219 413.03125 463.238281 412.671875 C 474.394531 416.347656 485.855469 419.558594 497.316406 422.109375 C 504.34375 423.691406 511.730469 425.070312 518.660156 423.132812 L 518.761719 423.589844 C 516.316406 424.253906 513.769531 424.558594 511.222656 424.558594 Z M 511.222656 424.558594 " fill-opacity="1" fill-rule="nonzero"/><path fill="#000000" d="M 468.230469 405.53125 C 462.167969 405.53125 458.5 404.304688 457.023438 401.910156 L 456.871094 401.601562 L 457.175781 401.550781 C 477.703125 397.367188 498.179688 391.910156 518.097656 385.328125 L 518.25 385.785156 C 498.4375 392.316406 478.0625 397.777344 457.632812 401.960938 C 463.035156 409.457031 493.1875 401.855469 515.296875 396.246094 C 518.046875 395.53125 520.644531 394.867188 523.140625 394.304688 L 523.242188 394.765625 C 520.796875 395.378906 518.148438 396.042969 515.398438 396.703125 C 503.785156 399.613281 490.640625 402.980469 479.589844 404.5625 C 475.105469 405.171875 471.335938 405.53125 468.230469 405.53125 Z M 468.230469 405.53125 " fill-opacity="1" fill-rule="nonzero"/><path fill="#ffffff" d="M 409.089844 455.679688 C 408.480469 457.773438 407.714844 459.863281 406.949219 461.90625 C 398.242188 465.476562 388.816406 468.027344 378.933594 468.945312 C 384.742188 456.191406 389.886719 443.027344 392.433594 428.898438 C 394.625 416.652344 394.828125 404 393.859375 391.550781 C 392.789062 378.285156 390.394531 365.226562 386.78125 352.675781 C 390.445312 353.492188 394.0625 354.511719 397.476562 355.6875 C 401.296875 356.960938 404.8125 358.339844 408.121094 359.769531 C 410.824219 373.796875 411.890625 388.542969 412.65625 402.929688 C 413.625 420.734375 414.183594 439 409.089844 455.679688 Z M 409.089844 455.679688 " fill-opacity="1" fill-rule="nonzero"/><path fill="#ffffff" d="M 462.777344 422.164062 C 462.167969 422.417969 461.609375 422.824219 461.097656 423.335938 C 457.429688 427.316406 450.707031 434.101562 441.589844 441.292969 C 445.867188 430.324219 453.050781 404.101562 438.683594 376.449219 C 445.511719 380.429688 451.316406 383.390625 457.378906 384 C 467.058594 398.285156 466.394531 411.550781 462.777344 422.164062 Z M 462.777344 422.164062 " fill-opacity="1" fill-rule="nonzero"/><path fill="#000000" d="M 360.902344 419.765625 C 391.773438 397.878906 405.675781 403.132812 402.011719 428.488281 C 399.515625 445.730469 388.664062 448.386719 374.859375 441.089844 C 361.820312 434.203125 358.253906 429.867188 358.253906 429.867188 C 358.253906 429.867188 356.878906 418.691406 360.902344 419.765625 Z M 360.902344 419.765625 " fill-opacity="1" fill-rule="nonzero"/><path fill="#e04503" d="M 355.199219 420.835938 C 387.238281 403.03125 401.652344 407.265625 397.832031 427.925781 C 395.234375 441.957031 383.976562 444.152344 369.664062 438.234375 C 356.164062 432.621094 352.449219 429.101562 352.449219 429.101562 C 352.449219 429.101562 350.96875 419.96875 355.199219 420.835938 Z M 355.199219 420.835938 " fill-opacity="1" fill-rule="nonzero"/><path fill="#ffffff" d="M 327.082031 400.9375 C 327.082031 401.582031 327.019531 402.21875 326.890625 402.851562 C 326.765625 403.480469 326.582031 404.09375 326.335938 404.6875 C 326.089844 405.28125 325.789062 405.847656 325.433594 406.382812 C 325.074219 406.914062 324.667969 407.410156 324.214844 407.867188 C 323.761719 408.320312 323.269531 408.726562 322.734375 409.082031 C 322.199219 409.441406 321.636719 409.742188 321.042969 409.988281 C 320.449219 410.234375 319.839844 410.421875 319.207031 410.546875 C 318.578125 410.671875 317.941406 410.734375 317.300781 410.734375 C 316.65625 410.734375 316.023438 410.671875 315.390625 410.546875 C 314.761719 410.421875 314.152344 410.234375 313.558594 409.988281 C 312.964844 409.742188 312.402344 409.441406 311.867188 409.082031 C 311.332031 408.726562 310.839844 408.320312 310.382812 407.867188 C 309.929688 407.410156 309.523438 406.914062 309.167969 406.382812 C 308.8125 405.847656 308.511719 405.28125 308.265625 404.6875 C 308.019531 404.09375 307.832031 403.480469 307.707031 402.851562 C 307.582031 402.21875 307.519531 401.582031 307.519531 400.9375 C 307.519531 400.296875 307.582031 399.660156 307.707031 399.027344 C 307.832031 398.398438 308.019531 397.785156 308.265625 397.191406 C 308.511719 396.597656 308.8125 396.03125 309.167969 395.496094 C 309.523438 394.960938 309.929688 394.46875 310.382812 394.011719 C 310.839844 393.558594 311.332031 393.152344 311.867188 392.792969 C 312.402344 392.4375 312.964844 392.136719 313.558594 391.890625 C 314.152344 391.644531 314.761719 391.457031 315.390625 391.332031 C 316.023438 391.207031 316.65625 391.144531 317.300781 391.144531 C 317.941406 391.144531 318.578125 391.207031 319.207031 391.332031 C 319.839844 391.457031 320.449219 391.644531 321.042969 391.890625 C 321.636719 392.136719 322.199219 392.4375 322.734375 392.792969 C 323.269531 393.152344 323.761719 393.558594 324.214844 394.011719 C 324.667969 394.46875 325.074219 394.960938 325.433594 395.496094 C 325.789062 396.03125 326.089844 396.597656 326.335938 397.191406 C 326.582031 397.785156 326.765625 398.398438 326.890625 399.027344 C 327.019531 399.660156 327.082031 400.296875 327.082031 400.9375 Z M 327.082031 400.9375 " fill-opacity="1" fill-rule="nonzero"/><path fill="#000000" d="M 349.441406 466.394531 C 348.21875 466.089844 346.996094 465.78125 345.773438 465.476562 C 338.746094 463.589844 332.582031 461.394531 327.132812 459.046875 C 326.0625 458.589844 324.992188 458.128906 323.972656 457.621094 C 324.277344 457.210938 324.585938 456.804688 324.839844 456.445312 C 330.238281 449.40625 332.9375 440.683594 334.464844 431.90625 C 336.808594 418.335938 336.453125 404.050781 331.207031 391.347656 C 328.097656 383.847656 326.722656 373.898438 321.78125 367.523438 C 321.070312 366.605469 320.203125 365.632812 319.441406 364.664062 C 324.789062 360.738281 330.390625 357.777344 336.097656 355.53125 C 341.292969 357.777344 345.925781 361.347656 349.59375 365.6875 C 354.433594 371.398438 357.796875 378.285156 360.089844 385.429688 C 362.378906 392.570312 363.753906 400.019531 364.0625 407.519531 C 364.925781 427.925781 358.203125 447.976562 349.441406 466.394531 Z M 349.441406 466.394531 " fill-opacity="1" fill-rule="nonzero"/><path fill="#000000" d="M 320.101562 400.582031 C 320.101562 400.945312 320.066406 401.300781 319.996094 401.65625 C 319.925781 402.011719 319.820312 402.355469 319.683594 402.691406 C 319.542969 403.023438 319.375 403.34375 319.175781 403.644531 C 318.972656 403.945312 318.746094 404.222656 318.492188 404.476562 C 318.234375 404.734375 317.957031 404.960938 317.65625 405.164062 C 317.355469 405.363281 317.039062 405.535156 316.707031 405.671875 C 316.371094 405.8125 316.027344 405.914062 315.671875 405.984375 C 315.320312 406.054688 314.960938 406.089844 314.601562 406.089844 C 314.238281 406.089844 313.882812 406.054688 313.527344 405.984375 C 313.171875 405.914062 312.828125 405.8125 312.496094 405.671875 C 312.160156 405.535156 311.84375 405.363281 311.542969 405.164062 C 311.242188 404.960938 310.964844 404.734375 310.710938 404.476562 C 310.453125 404.222656 310.226562 403.945312 310.027344 403.644531 C 309.824219 403.34375 309.65625 403.023438 309.519531 402.691406 C 309.378906 402.355469 309.273438 402.011719 309.203125 401.65625 C 309.132812 401.300781 309.097656 400.945312 309.097656 400.582031 C 309.097656 400.21875 309.132812 399.863281 309.203125 399.507812 C 309.273438 399.152344 309.378906 398.808594 309.519531 398.472656 C 309.65625 398.140625 309.824219 397.820312 310.027344 397.519531 C 310.226562 397.21875 310.453125 396.941406 310.710938 396.6875 C 310.964844 396.429688 311.242188 396.203125 311.542969 396 C 311.84375 395.800781 312.160156 395.628906 312.496094 395.492188 C 312.828125 395.351562 313.171875 395.25 313.527344 395.175781 C 313.882812 395.105469 314.238281 395.070312 314.601562 395.070312 C 314.960938 395.070312 315.320312 395.105469 315.671875 395.175781 C 316.027344 395.25 316.371094 395.351562 316.707031 395.492188 C 317.039062 395.628906 317.355469 395.800781 317.65625 396 C 317.957031 396.203125 318.234375 396.429688 318.492188 396.6875 C 318.746094 396.941406 318.972656 397.21875 319.175781 397.519531 C 319.375 397.820312 319.542969 398.140625 319.683594 398.472656 C 319.820312 398.808594 319.925781 399.152344 319.996094 399.507812 C 320.066406 399.863281 320.101562 400.21875 320.101562 400.582031 Z M 320.101562 400.582031 " fill-opacity="1" fill-rule="nonzero"/><path fill="#ffffff" d="M 345.773438 465.476562 C 338.746094 463.589844 332.582031 461.394531 327.132812 459.046875 C 339.050781 440.835938 348.628906 407.214844 318.878906 365.074219 C 325.296875 360.277344 332.070312 356.808594 339 354.460938 C 359.578125 379.460938 373.027344 418.234375 345.773438 465.476562 Z M 345.773438 465.476562 " fill-opacity="1" fill-rule="nonzero"/><path fill="#000000" d="M 534.398438 403.4375 C 533.632812 432.621094 523.34375 439.304688 510.609375 437.773438 C 514.835938 423.691406 518.660156 397.726562 504.957031 365.839844 C 521.511719 363.082031 535.265625 370.839844 534.398438 403.4375 Z M 534.398438 403.4375 " fill-opacity="1" fill-rule="nonzero"/><path fill="#000000" d="M 307.824219 426.292969 C 303.699219 432.109375 298.605469 434.96875 295.089844 436.292969 C 292.390625 432.976562 291.371094 430.785156 291.371094 430.785156 C 291.371094 430.785156 291.320312 430.734375 291.269531 430.683594 C 299.011719 430.683594 307.722656 426.34375 307.824219 426.292969 Z M 307.824219 426.292969 " fill-opacity="1" fill-rule="nonzero"/></svg>