<svg xmlns="http://www.w3.org/2000/svg" xmlns:xlink="http://www.w3.org/1999/xlink" width="1080" zoomAndPan="magnify" viewBox="0 0 810 809.999993" height="1080" preserveAspectRatio="xMidYMid meet" version="1.0"><defs><clipPath id="11f24caebb"><path d="M 355 357 L 460 357 L 460 460 L 355 460 Z M 355 357 " clip-rule="nonzero"/></clipPath><clipPath id="3aba477207"><path d="M 368.226562 339.160156 L 474.628906 375.6875 L 442 470.746094 L 335.59375 434.214844 Z M 368.226562 339.160156 " clip-rule="nonzero"/></clipPath><clipPath id="bc3b8c3e9d"><path d="M 368.226562 339.160156 L 474.628906 375.6875 L 442 470.746094 L 335.59375 434.214844 Z M 368.226562 339.160156 " clip-rule="nonzero"/></clipPath><clipPath id="abf1741cad"><path d="M 368.226562 339.160156 L 474.628906 375.6875 L 442 470.746094 L 335.59375 434.214844 Z M 368.226562 339.160156 " clip-rule="nonzero"/></clipPath><clipPath id="c823117cc4"><path d="M 400 400 L 412 400 L 412 408 L 400 408 Z M 400 400 " clip-rule="nonzero"/></clipPath><clipPath id="5076fa5df0"><path d="M 368.226562 339.160156 L 474.628906 375.6875 L 442 470.746094 L 335.59375 434.214844 Z M 368.226562 339.160156 " clip-rule="nonzero"/></clipPath><clipPath id="7a242db799"><path d="M 368.226562 339.160156 L 474.628906 375.6875 L 442 470.746094 L 335.59375 434.214844 Z M 368.226562 339.160156 " clip-rule="nonzero"/></clipPath><clipPath id="e47a4c225a"><path d="M 368.226562 339.160156 L 474.628906 375.6875 L 442 470.746094 L 335.59375 434.214844 Z M 368.226562 339.160156 " clip-rule="nonzero"/></clipPath><clipPath id="2b96437378"><path d="M 389 386 L 401 386 L 401 399 L 389 399 Z M 389 386 " clip-rule="nonzero"/></clipPath><clipPath id="5b797a274f"><path d="M 368.226562 339.160156 L 474.628906 375.6875 L 442 470.746094 L 335.59375 434.214844 Z M 368.226562 339.160156 " clip-rule="nonzero"/></clipPath><clipPath id="2c054c5200"><path d="M 368.226562 339.160156 L 474.628906 375.6875 L 442 470.746094 L 335.59375 434.214844 Z M 368.226562 339.160156 " clip-rule="nonzero"/></clipPath><clipPath id="fc718d0747"><path d="M 368.226562 339.160156 L 474.628906 375.6875 L 442 470.746094 L 335.59375 434.214844 Z M 368.226562 339.160156 " clip-rule="nonzero"/></clipPath><clipPath id="f5d5867c2f"><path d="M 396 390 L 400 390 L 400 395 L 396 395 Z M 396 390 " clip-rule="nonzero"/></clipPath><clipPath id="c77470822e"><path d="M 368.226562 339.160156 L 474.628906 375.6875 L 442 470.746094 L 335.59375 434.214844 Z M 368.226562 339.160156 " clip-rule="nonzero"/></clipPath><clipPath id="1e33b3e27f"><path d="M 368.226562 339.160156 L 474.628906 375.6875 L 442 470.746094 L 335.59375 434.214844 Z M 368.226562 339.160156 " clip-rule="nonzero"/></clipPath><clipPath id="b92c18a114"><path d="M 368.226562 339.160156 L 474.628906 375.6875 L 442 470.746094 L 335.59375 434.214844 Z M 368.226562 339.160156 " clip-rule="nonzero"/></clipPath><clipPath id="74f83d7f93"><path d="M 414 396 L 427 396 L 427 409 L 414 409 Z M 414 396 " clip-rule="nonzero"/></clipPath><clipPath id="d48f15f947"><path d="M 368.226562 339.160156 L 474.628906 375.6875 L 442 470.746094 L 335.59375 434.214844 Z M 368.226562 339.160156 " clip-rule="nonzero"/></clipPath><clipPath id="819ee56dc1"><path d="M 368.226562 339.160156 L 474.628906 375.6875 L 442 470.746094 L 335.59375 434.214844 Z M 368.226562 339.160156 " clip-rule="nonzero"/></clipPath><clipPath id="ab3cf66826"><path d="M 368.226562 339.160156 L 474.628906 375.6875 L 442 470.746094 L 335.59375 434.214844 Z M 368.226562 339.160156 " clip-rule="nonzero"/></clipPath><clipPath id="de47369608"><path d="M 422 401 L 426 401 L 426 405 L 422 405 Z M 422 401 " clip-rule="nonzero"/></clipPath><clipPath id="244f5c3382"><path d="M 368.226562 339.160156 L 474.628906 375.6875 L 442 470.746094 L 335.59375 434.214844 Z M 368.226562 339.160156 " clip-rule="nonzero"/></clipPath><clipPath id="1b3277139c"><path d="M 368.226562 339.160156 L 474.628906 375.6875 L 442 470.746094 L 335.59375 434.214844 Z M 368.226562 339.160156 " clip-rule="nonzero"/></clipPath><clipPath id="ab47de03b8"><path d="M 368.226562 339.160156 L 474.628906 375.6875 L 442 470.746094 L 335.59375 434.214844 Z M 368.226562 339.160156 " clip-rule="nonzero"/></clipPath><clipPath id="65e8ca7c16"><path d="M 415 410 L 425 410 L 425 417 L 415 417 Z M 415 410 " clip-rule="nonzero"/></clipPath><clipPath id="4cc476f8ce"><path d="M 368.226562 339.160156 L 474.628906 375.6875 L 442 470.746094 L 335.59375 434.214844 Z M 368.226562 339.160156 " clip-rule="nonzero"/></clipPath><clipPath id="0bf1541d7d"><path d="M 368.226562 339.160156 L 474.628906 375.6875 L 442 470.746094 L 335.59375 434.214844 Z M 368.226562 339.160156 " clip-rule="nonzero"/></clipPath><clipPath id="7795f2beb6"><path d="M 368.226562 339.160156 L 474.628906 375.6875 L 442 470.746094 L 335.59375 434.214844 Z M 368.226562 339.160156 " clip-rule="nonzero"/></clipPath><clipPath id="35b31087ce"><path d="M 383 399 L 393 399 L 393 407 L 383 407 Z M 383 399 " clip-rule="nonzero"/></clipPath><clipPath id="d2499bbfb0"><path d="M 368.226562 339.160156 L 474.628906 375.6875 L 442 470.746094 L 335.59375 434.214844 Z M 368.226562 339.160156 " clip-rule="nonzero"/></clipPath><clipPath id="fb4d5feef7"><path d="M 368.226562 339.160156 L 474.628906 375.6875 L 442 470.746094 L 335.59375 434.214844 Z M 368.226562 339.160156 " clip-rule="nonzero"/></clipPath><clipPath id="db583dfa50"><path d="M 368.226562 339.160156 L 474.628906 375.6875 L 442 470.746094 L 335.59375 434.214844 Z M 368.226562 339.160156 " clip-rule="nonzero"/></clipPath><clipPath id="66c7df1e3f"><path d="M 355 396 L 460 396 L 460 460 L 355 460 Z M 355 396 " clip-rule="nonzero"/></clipPath><clipPath id="89b2c0dc68"><path d="M 368.226562 339.160156 L 474.628906 375.6875 L 442 470.746094 L 335.59375 434.214844 Z M 368.226562 339.160156 " clip-rule="nonzero"/></clipPath><clipPath id="953fa3e5a3"><path d="M 368.226562 339.160156 L 474.628906 375.6875 L 442 470.746094 L 335.59375 434.214844 Z M 368.226562 339.160156 " clip-rule="nonzero"/></clipPath><clipPath id="360b008777"><path d="M 368.226562 339.160156 L 474.628906 375.6875 L 442 470.746094 L 335.59375 434.214844 Z M 368.226562 339.160156 " clip-rule="nonzero"/></clipPath></defs><g clip-path="url(#11f24caebb)"><g clip-path="url(#3aba477207)"><g clip-path="url(#bc3b8c3e9d)"><g clip-path="url(#abf1741cad)"><path fill="#ffb4c7" d="M 427.9375 423.367188 C 426.941406 425.808594 430.609375 446.5 426.746094 455.191406 C 425.832031 457.234375 424.507812 458.613281 422.621094 458.941406 C 412.632812 460.671875 398.726562 432.042969 394.835938 431.101562 C 391.648438 430.3125 371.730469 440.824219 361.574219 438.875 C 359.332031 438.4375 357.570312 437.40625 356.558594 435.511719 C 356.03125 434.519531 355.734375 433.460938 355.667969 432.339844 C 355 422.261719 372.738281 409.914062 373.863281 404.617188 C 374.195312 403.074219 372.9375 400.699219 371.027344 397.773438 C 371.027344 397.773438 371.027344 397.773438 371.007812 397.753906 C 365.621094 389.554688 355.160156 377.269531 360.925781 368.6875 C 366.894531 360.238281 381.734375 375.574219 393.527344 376.894531 C 402.765625 377.90625 408.601562 354.566406 421.394531 358.1875 C 434.191406 361.808594 425.460938 385.039062 430.304688 389.507812 C 433.535156 392.488281 444.402344 393.433594 451.855469 396.90625 C 455.574219 398.621094 458.457031 400.972656 459.101562 404.496094 C 461.097656 415.082031 429.164062 420.34375 427.9375 423.367188 Z M 427.9375 423.367188 " fill-opacity="1" fill-rule="nonzero"/></g></g></g></g><g clip-path="url(#c823117cc4)"><g clip-path="url(#5076fa5df0)"><g clip-path="url(#7a242db799)"><g clip-path="url(#e47a4c225a)"><path fill="#5b0000" d="M 404.910156 407.117188 C 409.425781 408.828125 411.824219 405.859375 411.738281 404.695312 C 411.648438 403.535156 408.742188 406.242188 405.640625 404.984375 C 401.765625 403.417969 401.890625 399.871094 400.851562 400.769531 C 399.8125 401.667969 400.390625 405.40625 404.910156 407.117188 Z M 404.910156 407.117188 " fill-opacity="1" fill-rule="nonzero"/></g></g></g></g><g clip-path="url(#2b96437378)"><g clip-path="url(#5b797a274f)"><g clip-path="url(#2c054c5200)"><g clip-path="url(#fc718d0747)"><path fill="#5b0000" d="M 400.589844 394.476562 C 400.464844 394.84375 400.308594 395.191406 400.113281 395.523438 C 399.917969 395.855469 399.695312 396.167969 399.4375 396.457031 C 399.183594 396.746094 398.902344 397.003906 398.59375 397.238281 C 398.285156 397.472656 397.960938 397.671875 397.613281 397.84375 C 397.265625 398.011719 396.90625 398.144531 396.53125 398.242188 C 396.15625 398.339844 395.777344 398.402344 395.390625 398.425781 C 395.007812 398.449219 394.621094 398.433594 394.238281 398.382812 C 393.855469 398.328125 393.480469 398.238281 393.117188 398.113281 C 392.75 397.988281 392.402344 397.828125 392.066406 397.632812 C 391.734375 397.441406 391.421875 397.214844 391.132812 396.960938 C 390.839844 396.703125 390.578125 396.421875 390.34375 396.117188 C 390.109375 395.808594 389.90625 395.484375 389.738281 395.136719 C 389.566406 394.789062 389.433594 394.429688 389.335938 394.058594 C 389.234375 393.683594 389.175781 393.304688 389.148438 392.921875 C 389.125 392.535156 389.140625 392.152344 389.191406 391.769531 C 389.242188 391.390625 389.332031 391.015625 389.457031 390.652344 C 389.582031 390.289062 389.738281 389.9375 389.933594 389.605469 C 390.128906 389.273438 390.351562 388.960938 390.609375 388.671875 C 390.863281 388.382812 391.144531 388.125 391.453125 387.890625 C 391.761719 387.65625 392.085938 387.457031 392.433594 387.285156 C 392.78125 387.117188 393.140625 386.984375 393.515625 386.886719 C 393.886719 386.789062 394.269531 386.726562 394.652344 386.703125 C 395.039062 386.679688 395.421875 386.695312 395.804688 386.746094 C 396.1875 386.796875 396.5625 386.886719 396.929688 387.011719 C 397.296875 387.136719 397.644531 387.296875 397.980469 387.492188 C 398.3125 387.6875 398.625 387.910156 398.914062 388.167969 C 399.207031 388.421875 399.46875 388.703125 399.703125 389.011719 C 399.9375 389.316406 400.140625 389.644531 400.308594 389.992188 C 400.480469 390.339844 400.613281 390.699219 400.714844 391.070312 C 400.8125 391.445312 400.875 391.824219 400.898438 392.207031 C 400.921875 392.59375 400.910156 392.976562 400.855469 393.359375 C 400.804688 393.738281 400.71875 394.113281 400.589844 394.476562 Z M 400.589844 394.476562 " fill-opacity="1" fill-rule="nonzero"/></g></g></g></g><g clip-path="url(#f5d5867c2f)"><g clip-path="url(#c77470822e)"><g clip-path="url(#1e33b3e27f)"><g clip-path="url(#b92c18a114)"><path fill="#ffffff" d="M 399.839844 393.082031 C 399.765625 393.304688 399.648438 393.5 399.496094 393.675781 C 399.339844 393.851562 399.160156 393.988281 398.949219 394.089844 C 398.738281 394.191406 398.519531 394.25 398.285156 394.265625 C 398.050781 394.277344 397.824219 394.25 397.605469 394.171875 C 397.382812 394.097656 397.183594 393.980469 397.007812 393.828125 C 396.835938 393.671875 396.695312 393.492188 396.59375 393.28125 C 396.488281 393.070312 396.429688 392.851562 396.417969 392.617188 C 396.402344 392.386719 396.433594 392.160156 396.507812 391.9375 C 396.582031 391.71875 396.699219 391.523438 396.851562 391.347656 C 397.007812 391.171875 397.1875 391.035156 397.398438 390.933594 C 397.609375 390.832031 397.828125 390.773438 398.0625 390.757812 C 398.296875 390.742188 398.523438 390.773438 398.742188 390.851562 C 398.964844 390.925781 399.164062 391.042969 399.339844 391.195312 C 399.511719 391.351562 399.652344 391.53125 399.753906 391.742188 C 399.859375 391.949219 399.917969 392.171875 399.929688 392.402344 C 399.945312 392.636719 399.914062 392.863281 399.839844 393.082031 Z M 399.839844 393.082031 " fill-opacity="1" fill-rule="nonzero"/></g></g></g></g><g clip-path="url(#74f83d7f93)"><g clip-path="url(#d48f15f947)"><g clip-path="url(#819ee56dc1)"><g clip-path="url(#ab3cf66826)"><path fill="#5b0000" d="M 426.449219 404.734375 C 426.324219 405.097656 426.164062 405.445312 425.96875 405.78125 C 425.777344 406.113281 425.550781 406.421875 425.296875 406.710938 C 425.039062 407 424.757812 407.261719 424.453125 407.496094 C 424.144531 407.730469 423.816406 407.929688 423.46875 408.101562 C 423.121094 408.269531 422.761719 408.402344 422.386719 408.5 C 422.015625 408.597656 421.636719 408.660156 421.25 408.683594 C 420.863281 408.707031 420.480469 408.691406 420.09375 408.640625 C 419.710938 408.589844 419.339844 408.5 418.972656 408.375 C 418.605469 408.25 418.257812 408.089844 417.921875 407.894531 C 417.585938 407.699219 417.273438 407.476562 416.984375 407.21875 C 416.695312 406.964844 416.433594 406.683594 416.199219 406.375 C 415.964844 406.070312 415.761719 405.742188 415.589844 405.394531 C 415.421875 405.046875 415.285156 404.6875 415.1875 404.316406 C 415.089844 403.941406 415.027344 403.5625 415.003906 403.179688 C 414.976562 402.792969 414.992188 402.410156 415.042969 402.027344 C 415.09375 401.644531 415.183594 401.273438 415.308594 400.90625 C 415.433594 400.542969 415.59375 400.195312 415.785156 399.863281 C 415.980469 399.527344 416.207031 399.21875 416.460938 398.929688 C 416.714844 398.640625 417 398.378906 417.304688 398.144531 C 417.613281 397.910156 417.941406 397.710938 418.289062 397.542969 C 418.632812 397.371094 418.996094 397.238281 419.367188 397.140625 C 419.742188 397.042969 420.121094 396.980469 420.507812 396.957031 C 420.894531 396.933594 421.277344 396.949219 421.660156 397 C 422.042969 397.054688 422.417969 397.140625 422.785156 397.265625 C 423.152344 397.394531 423.5 397.550781 423.835938 397.746094 C 424.167969 397.941406 424.480469 398.164062 424.773438 398.421875 C 425.0625 398.675781 425.324219 398.957031 425.558594 399.265625 C 425.792969 399.570312 425.996094 399.898438 426.167969 400.246094 C 426.335938 400.59375 426.472656 400.953125 426.570312 401.324219 C 426.667969 401.699219 426.730469 402.078125 426.753906 402.460938 C 426.78125 402.847656 426.765625 403.230469 426.714844 403.613281 C 426.664062 403.996094 426.574219 404.367188 426.449219 404.734375 Z M 426.449219 404.734375 " fill-opacity="1" fill-rule="nonzero"/></g></g></g></g><g clip-path="url(#de47369608)"><g clip-path="url(#244f5c3382)"><g clip-path="url(#1b3277139c)"><g clip-path="url(#ab47de03b8)"><path fill="#ffffff" d="M 425.695312 403.335938 C 425.621094 403.558594 425.503906 403.753906 425.351562 403.929688 C 425.195312 404.105469 425.015625 404.242188 424.804688 404.34375 C 424.59375 404.445312 424.375 404.503906 424.140625 404.519531 C 423.90625 404.53125 423.679688 404.503906 423.460938 404.425781 C 423.238281 404.351562 423.039062 404.234375 422.863281 404.082031 C 422.691406 403.925781 422.550781 403.746094 422.449219 403.535156 C 422.34375 403.324219 422.285156 403.105469 422.273438 402.871094 C 422.257812 402.640625 422.289062 402.414062 422.363281 402.195312 C 422.4375 401.972656 422.554688 401.777344 422.707031 401.601562 C 422.863281 401.425781 423.042969 401.289062 423.253906 401.1875 C 423.464844 401.085938 423.683594 401.027344 423.917969 401.011719 C 424.152344 400.996094 424.378906 401.027344 424.597656 401.105469 C 424.820312 401.179688 425.019531 401.296875 425.195312 401.449219 C 425.367188 401.605469 425.507812 401.785156 425.609375 401.996094 C 425.714844 402.203125 425.773438 402.425781 425.785156 402.660156 C 425.800781 402.890625 425.769531 403.117188 425.695312 403.335938 Z M 425.695312 403.335938 " fill-opacity="1" fill-rule="nonzero"/></g></g></g></g><g clip-path="url(#65e8ca7c16)"><g clip-path="url(#4cc476f8ce)"><g clip-path="url(#0bf1541d7d)"><g clip-path="url(#7795f2beb6)"><path fill="#ff7a9c" d="M 424.503906 415.378906 C 423.984375 416.886719 421.589844 417.433594 419.15625 416.597656 C 416.71875 415.761719 415.164062 413.859375 415.683594 412.351562 C 416.199219 410.84375 418.59375 410.296875 421.03125 411.132812 C 423.46875 411.96875 425.019531 413.871094 424.503906 415.378906 Z M 424.503906 415.378906 " fill-opacity="1" fill-rule="nonzero"/></g></g></g></g><g clip-path="url(#35b31087ce)"><g clip-path="url(#d2499bbfb0)"><g clip-path="url(#fb4d5feef7)"><g clip-path="url(#db583dfa50)"><path fill="#ff7a9c" d="M 392.859375 404.515625 C 392.339844 406.027344 389.949219 406.570312 387.511719 405.734375 C 385.074219 404.894531 383.519531 402.996094 384.039062 401.488281 C 384.554688 399.980469 386.953125 399.433594 389.386719 400.269531 C 391.820312 401.105469 393.375 403.007812 392.859375 404.515625 Z M 392.859375 404.515625 " fill-opacity="1" fill-rule="nonzero"/></g></g></g></g><g clip-path="url(#66c7df1e3f)"><g clip-path="url(#89b2c0dc68)"><g clip-path="url(#953fa3e5a3)"><g clip-path="url(#360b008777)"><path fill="#ff7a9c" d="M 427.9375 423.367188 C 426.941406 425.808594 430.609375 446.5 426.746094 455.191406 C 425.832031 457.234375 424.507812 458.613281 422.621094 458.941406 C 412.632812 460.671875 398.726562 432.042969 394.835938 431.101562 C 391.648438 430.3125 371.730469 440.824219 361.574219 438.875 C 359.332031 438.4375 357.570312 437.40625 356.558594 435.511719 C 356.03125 434.519531 355.734375 433.460938 355.667969 432.339844 C 356.949219 434.0625 358.511719 435.476562 360.351562 436.585938 C 366.777344 440.566406 391.433594 428.039062 395.59375 429.082031 C 399.753906 430.128906 414.429688 458.648438 422.816406 455.988281 C 431.199219 453.328125 422.605469 429.0625 425.425781 422.90625 C 428.871094 415.375 455.140625 413.746094 456.875 405.835938 C 458.046875 400.519531 454.15625 399.328125 451.863281 396.898438 C 455.582031 398.609375 458.464844 400.964844 459.113281 404.488281 C 461.097656 415.082031 429.164062 420.34375 427.9375 423.367188 Z M 427.9375 423.367188 " fill-opacity="1" fill-rule="nonzero"/></g></g></g></g></svg>